# MagicaVoxel @ ephtracy

# material
mtllib door.mtl
usemtl palette

# normals
vn -1 0 0
vn 1 0 0
vn 0 0 1
vn 0 0 -1
vn 0 -1 0
vn 0 1 0

# texcoords
vt 0.00976562 0.5
vt 0.0410156 0.5
vt 0.201172 0.5
vt 0.232422 0.5
vt 0.587891 0.5
vt 0.865234 0.5
vt 0.966797 0.5

# verts
v -6 0 1
v -6 0 -1
v -6 16 1
v -6 16 -1
v 1 11 1
v 1 11 -0
v 1 12 1
v 1 12 -0
v 2 7 2
v 2 7 1
v 2 8 2
v 2 8 1
v 2 9 2
v 2 9 1
v 3 6 1
v 3 6 -0
v 3 7 1
v 3 8 1
v 3 8 -0
v -1 11 1
v -1 11 -0
v -1 12 1
v -1 12 -0
v 2 6 1
v 2 6 -0
v 2 7 1
v 2 8 1
v 2 8 -0
v 3 7 2
v 3 7 1
v 3 8 2
v 3 8 1
v 4 8 2
v 4 8 1
v 4 9 2
v 4 9 1
v 6 0 1
v 6 0 -1
v 6 16 1
v 6 16 -1
v 2 7 2
v 2 8 2
v 2 9 2
v 3 7 2
v 3 8 2
v 4 8 2
v 4 9 2
v -6 0 1
v -6 16 1
v -5 1 1
v -5 15 1
v -4 2 1
v -4 14 1
v -3 3 1
v -3 13 1
v -1 11 1
v -1 12 1
v 1 11 1
v 1 12 1
v 2 6 1
v 2 7 1
v 2 8 1
v 2 9 1
v 3 3 1
v 3 6 1
v 3 7 1
v 3 8 1
v 3 9 1
v 3 13 1
v 4 2 1
v 4 8 1
v 4 9 1
v 4 14 1
v 5 1 1
v 5 15 1
v 6 0 1
v 6 16 1
v -1 11 -0
v -1 12 -0
v 1 11 -0
v 1 12 -0
v 2 6 -0
v 2 8 -0
v 3 6 -0
v 3 8 -0
v 2 7 1
v 2 8 1
v 3 7 1
v 3 8 1
v -6 0 -1
v -6 16 -1
v -5 1 -1
v -5 15 -1
v -1 11 -1
v -1 12 -1
v 1 11 -1
v 1 12 -1
v 2 6 -1
v 2 8 -1
v 3 6 -1
v 3 8 -1
v 5 1 -1
v 5 15 -1
v 6 0 -1
v 6 16 -1
v -6 0 1
v 6 0 1
v -6 0 -1
v 6 0 -1
v 2 7 2
v 3 7 2
v 2 7 1
v 3 7 1
v 3 8 2
v 4 8 2
v 2 8 1
v 3 8 1
v 4 8 1
v 2 8 -0
v 3 8 -0
v -1 12 1
v 1 12 1
v -1 12 -0
v 1 12 -0
v 2 6 1
v 3 6 1
v 2 6 -0
v 3 6 -0
v 2 9 2
v 4 9 2
v 2 9 1
v 3 9 1
v 4 9 1
v -1 11 1
v 1 11 1
v -1 11 -0
v 1 11 -0
v -6 16 1
v 6 16 1
v -6 16 -1
v 6 16 -1

# faces
f 3/6/1 2/6/1 1/6/1
f 4/6/1 2/6/1 3/6/1
f 7/3/1 6/3/1 5/3/1
f 8/3/1 6/3/1 7/3/1
f 11/1/1 10/1/1 9/1/1
f 12/1/1 10/1/1 11/1/1
f 13/2/1 12/2/1 11/2/1
f 14/2/1 12/2/1 13/2/1
f 17/4/1 16/4/1 15/4/1
f 18/4/1 16/4/1 17/4/1
f 19/4/1 16/4/1 18/4/1
f 20/3/2 21/3/2 22/3/2
f 22/3/2 21/3/2 23/3/2
f 24/3/2 25/3/2 26/3/2
f 26/3/2 25/3/2 27/3/2
f 27/3/2 25/3/2 28/3/2
f 29/1/2 30/1/2 31/1/2
f 31/1/2 30/1/2 32/1/2
f 33/2/2 34/2/2 35/2/2
f 35/2/2 34/2/2 36/2/2
f 37/6/2 38/6/2 39/6/2
f 39/6/2 38/6/2 40/6/2
f 44/1/3 42/1/3 41/1/3
f 45/2/3 43/2/3 42/2/3
f 45/1/3 42/1/3 44/1/3
f 46/2/3 43/2/3 45/2/3
f 47/2/3 43/2/3 46/2/3
f 50/6/3 49/6/3 48/6/3
f 51/6/3 49/6/3 50/6/3
f 52/3/3 51/3/3 50/3/3
f 53/3/3 51/3/3 52/3/3
f 54/4/3 53/4/3 52/4/3
f 55/4/3 53/4/3 54/4/3
f 56/3/3 55/3/3 54/3/3
f 57/3/3 55/3/3 56/3/3
f 58/3/3 56/3/3 54/3/3
f 59/3/3 55/3/3 57/3/3
f 60/3/3 58/3/3 54/3/3
f 60/3/3 59/3/3 58/3/3
f 61/3/3 59/3/3 60/3/3
f 62/3/3 59/3/3 61/3/3
f 63/3/3 59/3/3 62/3/3
f 64/4/3 54/4/3 52/4/3
f 64/3/3 60/3/3 54/3/3
f 65/3/3 60/3/3 64/3/3
f 68/3/3 59/3/3 63/3/3
f 69/4/3 53/4/3 55/4/3
f 69/3/3 59/3/3 68/3/3
f 69/3/3 55/3/3 59/3/3
f 70/3/3 52/3/3 50/3/3
f 70/4/3 67/4/3 66/4/3
f 70/4/3 66/4/3 65/4/3
f 70/4/3 65/4/3 64/4/3
f 70/4/3 64/4/3 52/4/3
f 71/4/3 67/4/3 70/4/3
f 72/4/3 69/4/3 68/4/3
f 73/4/3 53/4/3 69/4/3
f 73/3/3 51/3/3 53/3/3
f 73/4/3 69/4/3 72/4/3
f 74/6/3 50/6/3 48/6/3
f 74/3/3 72/3/3 71/3/3
f 74/3/3 73/3/3 72/3/3
f 74/3/3 70/3/3 50/3/3
f 74/3/3 71/3/3 70/3/3
f 75/3/3 51/3/3 73/3/3
f 75/3/3 73/3/3 74/3/3
f 75/6/3 49/6/3 51/6/3
f 76/6/3 74/6/3 48/6/3
f 76/6/3 75/6/3 74/6/3
f 77/6/3 49/6/3 75/6/3
f 77/6/3 75/6/3 76/6/3
f 80/5/3 79/5/3 78/5/3
f 81/5/3 79/5/3 80/5/3
f 84/7/3 83/7/3 82/7/3
f 85/7/3 83/7/3 84/7/3
f 86/1/4 87/1/4 88/1/4
f 88/1/4 87/1/4 89/1/4
f 90/6/4 91/6/4 92/6/4
f 92/6/4 91/6/4 93/6/4
f 92/3/4 93/3/4 94/3/4
f 94/3/4 93/3/4 95/3/4
f 92/3/4 94/3/4 96/3/4
f 94/5/4 95/5/4 96/5/4
f 95/3/4 93/3/4 97/3/4
f 96/5/4 95/5/4 97/5/4
f 92/3/4 96/3/4 98/3/4
f 96/3/4 97/3/4 98/3/4
f 98/3/4 97/3/4 99/3/4
f 92/3/4 98/3/4 100/3/4
f 98/7/4 99/7/4 100/7/4
f 99/3/4 97/3/4 101/3/4
f 100/7/4 99/7/4 101/7/4
f 90/6/4 92/6/4 102/6/4
f 92/3/4 100/3/4 102/3/4
f 100/3/4 101/3/4 102/3/4
f 101/3/4 97/3/4 103/3/4
f 102/3/4 101/3/4 103/3/4
f 93/6/4 91/6/4 103/6/4
f 97/3/4 93/3/4 103/3/4
f 90/6/4 102/6/4 104/6/4
f 102/6/4 103/6/4 104/6/4
f 103/6/4 91/6/4 105/6/4
f 104/6/4 103/6/4 105/6/4
f 108/6/5 107/6/5 106/6/5
f 109/6/5 107/6/5 108/6/5
f 112/1/5 111/1/5 110/1/5
f 113/1/5 111/1/5 112/1/5
f 117/2/5 115/2/5 114/2/5
f 118/2/5 115/2/5 117/2/5
f 119/3/5 117/3/5 116/3/5
f 120/3/5 117/3/5 119/3/5
f 123/3/5 122/3/5 121/3/5
f 124/3/5 122/3/5 123/3/5
f 125/3/6 126/3/6 127/3/6
f 127/3/6 126/3/6 128/3/6
f 129/2/6 130/2/6 131/2/6
f 131/2/6 130/2/6 132/2/6
f 132/2/6 130/2/6 133/2/6
f 134/3/6 135/3/6 136/3/6
f 136/3/6 135/3/6 137/3/6
f 138/6/6 139/6/6 140/6/6
f 140/6/6 139/6/6 141/6/6
