# MagicaVoxel @ ephtracy

# material
mtllib garderob2.mtl
usemtl palette

# normals
vn -1 0 0
vn 1 0 0
vn 0 0 1
vn 0 0 -1
vn 0 -1 0
vn 0 1 0

# texcoords
vt 0.0136719 0.5
vt 0.0371094 0.5
vt 0.232422 0.5
vt 0.533203 0.5
vt 0.705078 0.5

# verts
v -5 0 3
v -5 0 2
v -5 0 -6
v -5 15 3
v -5 15 2
v -5 15 -6
v -1 7 4
v -1 7 3
v -1 8 4
v -1 8 3
v 3 0 6
v 3 0 3
v 3 15 6
v 3 15 3
v 4 0 3
v 4 0 2
v 4 1 2
v 4 1 -5
v 4 9 -4
v 4 9 -5
v 4 11 -3
v 4 11 -4
v 4 12 -3
v 4 12 -5
v 4 13 2
v 4 13 -5
v 4 15 3
v 4 15 2
v -4 1 2
v -4 1 -5
v -4 13 2
v -4 13 -5
v 0 7 4
v 0 7 3
v 0 8 4
v 0 8 3
v 1 0 3
v 1 0 2
v 1 1 2
v 1 13 2
v 1 15 3
v 1 15 2
v 4 0 6
v 4 0 3
v 4 7 6
v 4 7 5
v 4 8 6
v 4 8 5
v 4 15 6
v 4 15 3
v 5 0 3
v 5 0 2
v 5 0 -6
v 5 7 6
v 5 7 5
v 5 8 6
v 5 8 5
v 5 9 -4
v 5 9 -5
v 5 11 -3
v 5 11 -4
v 5 12 -3
v 5 12 -5
v 5 15 3
v 5 15 2
v 5 15 -6
v 3 0 6
v 3 15 6
v 4 0 6
v 4 7 6
v 4 8 6
v 4 15 6
v 5 7 6
v 5 8 6
v -1 7 4
v -1 8 4
v 0 7 4
v 0 8 4
v -5 0 3
v -5 15 3
v -4 1 3
v -4 14 3
v -2 1 3
v -2 14 3
v -1 7 3
v -1 8 3
v 0 0 3
v 0 7 3
v 0 8 3
v 0 15 3
v 1 0 3
v 1 15 3
v 4 0 3
v 4 15 3
v 5 0 3
v 5 15 3
v 1 0 2
v 1 1 2
v 1 13 2
v 1 15 2
v 4 0 2
v 4 1 2
v 4 13 2
v 4 15 2
v -4 1 -5
v -4 13 -5
v 4 1 -5
v 4 9 -5
v 4 12 -5
v 4 13 -5
v 5 9 -5
v 5 12 -5
v 4 7 5
v 4 8 5
v 5 7 5
v 5 8 5
v 3 0 3
v 3 15 3
v 4 0 3
v 4 15 3
v -4 1 2
v -4 13 2
v -2 1 2
v -2 13 2
v 0 1 2
v 0 13 2
v 1 1 2
v 1 13 2
v 4 11 -3
v 4 12 -3
v 5 11 -3
v 5 12 -3
v 4 9 -4
v 4 11 -4
v 5 9 -4
v 5 11 -4
v -5 0 -6
v -5 15 -6
v 5 0 -6
v 5 15 -6
v 3 0 6
v 4 0 6
v -5 0 3
v 0 0 3
v 1 0 3
v 3 0 3
v 4 0 3
v 5 0 3
v -5 0 2
v 0 0 2
v 1 0 2
v 4 0 2
v 5 0 2
v -5 0 -6
v 5 0 -6
v 4 7 6
v 5 7 6
v 4 7 5
v 5 7 5
v -1 7 4
v 0 7 4
v -1 7 3
v 0 7 3
v 4 12 -3
v 5 12 -3
v 4 12 -5
v 5 12 -5
v -4 13 2
v -2 13 2
v 0 13 2
v 1 13 2
v 4 13 2
v -4 13 -5
v 4 13 -5
v -4 1 2
v -2 1 2
v 0 1 2
v 1 1 2
v 4 1 2
v -4 1 -5
v 4 1 -5
v 4 8 6
v 5 8 6
v 4 8 5
v 5 8 5
v -1 8 4
v 0 8 4
v -1 8 3
v 0 8 3
v 4 9 -4
v 5 9 -4
v 4 9 -5
v 5 9 -5
v 4 11 -3
v 5 11 -3
v 4 11 -4
v 5 11 -4
v 3 15 6
v 4 15 6
v -5 15 3
v 0 15 3
v 1 15 3
v 3 15 3
v 4 15 3
v 5 15 3
v -5 15 2
v 0 15 2
v 1 15 2
v 4 15 2
v 5 15 2
v -5 15 -6
v 5 15 -6

# faces
f 4/4/1 2/4/1 1/4/1
f 5/3/1 3/3/1 2/3/1
f 5/4/1 2/4/1 4/4/1
f 6/3/1 3/3/1 5/3/1
f 9/1/1 8/1/1 7/1/1
f 10/1/1 8/1/1 9/1/1
f 13/4/1 12/4/1 11/4/1
f 14/4/1 12/4/1 13/4/1
f 17/4/1 16/4/1 15/4/1
f 19/3/1 18/3/1 17/3/1
f 20/3/1 18/3/1 19/3/1
f 21/3/1 19/3/1 17/3/1
f 22/3/1 19/3/1 21/3/1
f 23/3/1 21/3/1 17/3/1
f 25/4/1 17/4/1 15/4/1
f 25/3/1 24/3/1 23/3/1
f 25/3/1 23/3/1 17/3/1
f 26/3/1 24/3/1 25/3/1
f 27/4/1 25/4/1 15/4/1
f 28/4/1 25/4/1 27/4/1
f 29/3/2 30/3/2 31/3/2
f 31/3/2 30/3/2 32/3/2
f 33/1/2 34/1/2 35/1/2
f 35/1/2 34/1/2 36/1/2
f 37/2/2 38/2/2 39/2/2
f 37/2/2 39/2/2 40/2/2
f 37/2/2 40/2/2 41/2/2
f 41/2/2 40/2/2 42/2/2
f 43/4/2 44/4/2 45/4/2
f 45/4/2 44/4/2 46/4/2
f 46/4/2 44/4/2 48/4/2
f 47/4/2 48/4/2 49/4/2
f 48/4/2 44/4/2 50/4/2
f 49/4/2 48/4/2 50/4/2
f 54/1/2 55/1/2 56/1/2
f 56/1/2 55/1/2 57/1/2
f 52/3/2 53/3/2 58/3/2
f 58/3/2 53/3/2 59/3/2
f 52/3/2 58/3/2 60/3/2
f 60/3/2 58/3/2 61/3/2
f 52/3/2 60/3/2 62/3/2
f 59/3/2 53/3/2 63/3/2
f 51/4/2 52/4/2 64/4/2
f 62/3/2 63/3/2 65/3/2
f 64/4/2 52/4/2 65/4/2
f 52/3/2 62/3/2 65/3/2
f 63/3/2 53/3/2 66/3/2
f 65/3/2 63/3/2 66/3/2
f 69/4/3 68/4/3 67/4/3
f 70/4/3 68/4/3 69/4/3
f 71/4/3 68/4/3 70/4/3
f 72/4/3 68/4/3 71/4/3
f 73/1/3 71/1/3 70/1/3
f 74/1/3 71/1/3 73/1/3
f 77/1/3 76/1/3 75/1/3
f 78/1/3 76/1/3 77/1/3
f 81/4/3 80/4/3 79/4/3
f 82/4/3 80/4/3 81/4/3
f 83/4/3 81/4/3 79/4/3
f 83/5/3 82/5/3 81/5/3
f 84/4/3 80/4/3 82/4/3
f 84/5/3 82/5/3 83/5/3
f 85/4/3 84/4/3 83/4/3
f 86/4/3 84/4/3 85/4/3
f 87/4/3 83/4/3 79/4/3
f 87/4/3 85/4/3 83/4/3
f 88/4/3 85/4/3 87/4/3
f 89/4/3 84/4/3 86/4/3
f 90/4/3 80/4/3 84/4/3
f 90/4/3 84/4/3 89/4/3
f 91/2/3 88/2/3 87/2/3
f 91/2/3 89/2/3 88/2/3
f 91/2/3 90/2/3 89/2/3
f 92/2/3 90/2/3 91/2/3
f 95/4/3 94/4/3 93/4/3
f 96/4/3 94/4/3 95/4/3
f 101/3/3 98/3/3 97/3/3
f 102/3/3 98/3/3 101/3/3
f 103/3/3 100/3/3 99/3/3
f 104/3/3 100/3/3 103/3/3
f 107/3/3 106/3/3 105/3/3
f 108/3/3 106/3/3 107/3/3
f 109/3/3 106/3/3 108/3/3
f 110/3/3 106/3/3 109/3/3
f 111/3/3 109/3/3 108/3/3
f 112/3/3 109/3/3 111/3/3
f 113/1/4 114/1/4 115/1/4
f 115/1/4 114/1/4 116/1/4
f 117/4/4 118/4/4 119/4/4
f 119/4/4 118/4/4 120/4/4
f 121/5/4 122/5/4 123/5/4
f 123/5/4 122/5/4 124/5/4
f 123/4/4 124/4/4 125/4/4
f 125/4/4 124/4/4 126/4/4
f 125/2/4 126/2/4 127/2/4
f 127/2/4 126/2/4 128/2/4
f 129/3/4 130/3/4 131/3/4
f 131/3/4 130/3/4 132/3/4
f 133/3/4 134/3/4 135/3/4
f 135/3/4 134/3/4 136/3/4
f 137/3/4 138/3/4 139/3/4
f 139/3/4 138/3/4 140/3/4
f 146/4/5 142/4/5 141/4/5
f 147/4/5 142/4/5 146/4/5
f 149/4/5 144/4/5 143/4/5
f 150/2/5 145/2/5 144/2/5
f 150/4/5 144/4/5 149/4/5
f 151/2/5 145/2/5 150/2/5
f 152/4/5 148/4/5 147/4/5
f 153/4/5 148/4/5 152/4/5
f 154/3/5 151/3/5 150/3/5
f 154/3/5 150/3/5 149/3/5
f 154/3/5 153/3/5 152/3/5
f 154/3/5 152/3/5 151/3/5
f 155/3/5 153/3/5 154/3/5
f 158/1/5 157/1/5 156/1/5
f 159/1/5 157/1/5 158/1/5
f 162/1/5 161/1/5 160/1/5
f 163/1/5 161/1/5 162/1/5
f 166/3/5 165/3/5 164/3/5
f 167/3/5 165/3/5 166/3/5
f 173/3/5 169/3/5 168/3/5
f 173/3/5 172/3/5 171/3/5
f 173/3/5 171/3/5 170/3/5
f 173/3/5 170/3/5 169/3/5
f 174/3/5 172/3/5 173/3/5
f 175/3/6 176/3/6 180/3/6
f 178/3/6 179/3/6 180/3/6
f 177/3/6 178/3/6 180/3/6
f 176/3/6 177/3/6 180/3/6
f 180/3/6 179/3/6 181/3/6
f 182/1/6 183/1/6 184/1/6
f 184/1/6 183/1/6 185/1/6
f 186/1/6 187/1/6 188/1/6
f 188/1/6 187/1/6 189/1/6
f 190/3/6 191/3/6 192/3/6
f 192/3/6 191/3/6 193/3/6
f 194/3/6 195/3/6 196/3/6
f 196/3/6 195/3/6 197/3/6
f 198/4/6 199/4/6 203/4/6
f 203/4/6 199/4/6 204/4/6
f 200/4/6 201/4/6 206/4/6
f 201/2/6 202/2/6 207/2/6
f 206/4/6 201/4/6 207/4/6
f 207/2/6 202/2/6 208/2/6
f 204/4/6 205/4/6 209/4/6
f 209/4/6 205/4/6 210/4/6
f 207/3/6 208/3/6 211/3/6
f 206/3/6 207/3/6 211/3/6
f 209/3/6 210/3/6 211/3/6
f 208/3/6 209/3/6 211/3/6
f 211/3/6 210/3/6 212/3/6
