# MagicaVoxel @ ephtracy

# material
mtllib garderob.mtl
usemtl palette

# normals
vn -1 0 0
vn 1 0 0
vn 0 0 1
vn 0 0 -1
vn 0 -1 0
vn 0 1 0

# texcoords
vt 0.0136719 0.5
vt 0.0371094 0.5
vt 0.232422 0.5
vt 0.533203 0.5
vt 0.705078 0.5

# verts
v -5 0 3
v -5 0 2
v -5 0 -6
v -5 15 3
v -5 15 2
v -5 15 -6
v -1 7 4
v -1 7 3
v -1 8 4
v -1 8 3
v 1 7 4
v 1 7 3
v 1 8 4
v 1 8 3
v 4 1 2
v 4 1 -5
v 4 9 -4
v 4 9 -5
v 4 11 -3
v 4 11 -4
v 4 12 -3
v 4 12 -5
v 4 13 2
v 4 13 -5
v -4 1 2
v -4 1 -5
v -4 13 2
v -4 13 -5
v 0 7 4
v 0 7 3
v 0 8 4
v 0 8 3
v 2 7 4
v 2 7 3
v 2 8 4
v 2 8 3
v 5 0 3
v 5 0 2
v 5 0 -6
v 5 9 -4
v 5 9 -5
v 5 11 -3
v 5 11 -4
v 5 12 -3
v 5 12 -5
v 5 15 3
v 5 15 2
v 5 15 -6
v -1 7 4
v -1 8 4
v 0 7 4
v 0 8 4
v 1 7 4
v 1 8 4
v 2 7 4
v 2 8 4
v -5 0 3
v -5 15 3
v -4 1 3
v -4 14 3
v -2 1 3
v -2 14 3
v -1 7 3
v -1 8 3
v 0 0 3
v 0 7 3
v 0 8 3
v 0 15 3
v 1 0 3
v 1 7 3
v 1 8 3
v 1 15 3
v 2 7 3
v 2 8 3
v 5 0 3
v 5 15 3
v -4 1 -5
v -4 13 -5
v 4 1 -5
v 4 9 -5
v 4 12 -5
v 4 13 -5
v 5 9 -5
v 5 12 -5
v -4 1 2
v -4 13 2
v -2 1 2
v -2 13 2
v 0 1 2
v 0 13 2
v 1 1 2
v 1 13 2
v 4 1 2
v 4 13 2
v 4 11 -3
v 4 12 -3
v 5 11 -3
v 5 12 -3
v 4 9 -4
v 4 11 -4
v 5 9 -4
v 5 11 -4
v -5 0 -6
v -5 15 -6
v 5 0 -6
v 5 15 -6
v -5 0 3
v 0 0 3
v 1 0 3
v 5 0 3
v -5 0 2
v 0 0 2
v 1 0 2
v 5 0 2
v -5 0 -6
v 5 0 -6
v -1 7 4
v 0 7 4
v 1 7 4
v 2 7 4
v -1 7 3
v 0 7 3
v 1 7 3
v 2 7 3
v 4 12 -3
v 5 12 -3
v 4 12 -5
v 5 12 -5
v -4 13 2
v -2 13 2
v 0 13 2
v 1 13 2
v 4 13 2
v -4 13 -5
v 4 13 -5
v -4 1 2
v -2 1 2
v 0 1 2
v 1 1 2
v 4 1 2
v -4 1 -5
v 4 1 -5
v -1 8 4
v 0 8 4
v 1 8 4
v 2 8 4
v -1 8 3
v 0 8 3
v 1 8 3
v 2 8 3
v 4 9 -4
v 5 9 -4
v 4 9 -5
v 5 9 -5
v 4 11 -3
v 5 11 -3
v 4 11 -4
v 5 11 -4
v -5 15 3
v 0 15 3
v 1 15 3
v 5 15 3
v -5 15 2
v 0 15 2
v 1 15 2
v 5 15 2
v -5 15 -6
v 5 15 -6

# faces
f 4/4/1 2/4/1 1/4/1
f 5/3/1 3/3/1 2/3/1
f 5/4/1 2/4/1 4/4/1
f 6/3/1 3/3/1 5/3/1
f 9/1/1 8/1/1 7/1/1
f 10/1/1 8/1/1 9/1/1
f 13/1/1 12/1/1 11/1/1
f 14/1/1 12/1/1 13/1/1
f 17/3/1 16/3/1 15/3/1
f 18/3/1 16/3/1 17/3/1
f 19/3/1 17/3/1 15/3/1
f 20/3/1 17/3/1 19/3/1
f 21/3/1 19/3/1 15/3/1
f 23/3/1 21/3/1 15/3/1
f 23/3/1 22/3/1 21/3/1
f 24/3/1 22/3/1 23/3/1
f 25/3/2 26/3/2 27/3/2
f 27/3/2 26/3/2 28/3/2
f 29/1/2 30/1/2 31/1/2
f 31/1/2 30/1/2 32/1/2
f 33/1/2 34/1/2 35/1/2
f 35/1/2 34/1/2 36/1/2
f 38/3/2 39/3/2 40/3/2
f 40/3/2 39/3/2 41/3/2
f 38/3/2 40/3/2 42/3/2
f 42/3/2 40/3/2 43/3/2
f 38/3/2 42/3/2 44/3/2
f 41/3/2 39/3/2 45/3/2
f 37/4/2 38/4/2 46/4/2
f 44/3/2 45/3/2 47/3/2
f 46/4/2 38/4/2 47/4/2
f 38/3/2 44/3/2 47/3/2
f 45/3/2 39/3/2 48/3/2
f 47/3/2 45/3/2 48/3/2
f 51/1/3 50/1/3 49/1/3
f 52/1/3 50/1/3 51/1/3
f 55/1/3 54/1/3 53/1/3
f 56/1/3 54/1/3 55/1/3
f 59/4/3 58/4/3 57/4/3
f 60/4/3 58/4/3 59/4/3
f 61/4/3 59/4/3 57/4/3
f 61/5/3 60/5/3 59/5/3
f 62/4/3 58/4/3 60/4/3
f 62/5/3 60/5/3 61/5/3
f 63/4/3 62/4/3 61/4/3
f 64/4/3 62/4/3 63/4/3
f 65/4/3 61/4/3 57/4/3
f 65/4/3 63/4/3 61/4/3
f 66/4/3 63/4/3 65/4/3
f 67/4/3 62/4/3 64/4/3
f 68/4/3 58/4/3 62/4/3
f 68/4/3 62/4/3 67/4/3
f 69/2/3 66/2/3 65/2/3
f 69/2/3 67/2/3 66/2/3
f 69/2/3 68/2/3 67/2/3
f 70/2/3 68/2/3 69/2/3
f 71/2/3 68/2/3 70/2/3
f 72/2/3 68/2/3 71/2/3
f 73/4/3 70/4/3 69/4/3
f 74/4/3 72/4/3 71/4/3
f 75/4/3 73/4/3 69/4/3
f 75/4/3 74/4/3 73/4/3
f 76/4/3 72/4/3 74/4/3
f 76/4/3 74/4/3 75/4/3
f 79/3/3 78/3/3 77/3/3
f 80/3/3 78/3/3 79/3/3
f 81/3/3 78/3/3 80/3/3
f 82/3/3 78/3/3 81/3/3
f 83/3/3 81/3/3 80/3/3
f 84/3/3 81/3/3 83/3/3
f 85/5/4 86/5/4 87/5/4
f 87/5/4 86/5/4 88/5/4
f 87/4/4 88/4/4 89/4/4
f 89/4/4 88/4/4 90/4/4
f 89/2/4 90/2/4 91/2/4
f 91/2/4 90/2/4 92/2/4
f 91/4/4 92/4/4 93/4/4
f 93/4/4 92/4/4 94/4/4
f 95/3/4 96/3/4 97/3/4
f 97/3/4 96/3/4 98/3/4
f 99/3/4 100/3/4 101/3/4
f 101/3/4 100/3/4 102/3/4
f 103/3/4 104/3/4 105/3/4
f 105/3/4 104/3/4 106/3/4
f 111/4/5 108/4/5 107/4/5
f 112/2/5 109/2/5 108/2/5
f 112/4/5 108/4/5 111/4/5
f 113/4/5 110/4/5 109/4/5
f 113/2/5 109/2/5 112/2/5
f 114/4/5 110/4/5 113/4/5
f 115/3/5 112/3/5 111/3/5
f 115/3/5 113/3/5 112/3/5
f 115/3/5 114/3/5 113/3/5
f 116/3/5 114/3/5 115/3/5
f 121/1/5 118/1/5 117/1/5
f 122/1/5 118/1/5 121/1/5
f 123/1/5 120/1/5 119/1/5
f 124/1/5 120/1/5 123/1/5
f 127/3/5 126/3/5 125/3/5
f 128/3/5 126/3/5 127/3/5
f 134/3/5 130/3/5 129/3/5
f 134/3/5 133/3/5 132/3/5
f 134/3/5 132/3/5 131/3/5
f 134/3/5 131/3/5 130/3/5
f 135/3/5 133/3/5 134/3/5
f 136/3/6 137/3/6 141/3/6
f 139/3/6 140/3/6 141/3/6
f 138/3/6 139/3/6 141/3/6
f 137/3/6 138/3/6 141/3/6
f 141/3/6 140/3/6 142/3/6
f 143/1/6 144/1/6 147/1/6
f 147/1/6 144/1/6 148/1/6
f 145/1/6 146/1/6 149/1/6
f 149/1/6 146/1/6 150/1/6
f 151/3/6 152/3/6 153/3/6
f 153/3/6 152/3/6 154/3/6
f 155/3/6 156/3/6 157/3/6
f 157/3/6 156/3/6 158/3/6
f 159/4/6 160/4/6 163/4/6
f 160/2/6 161/2/6 164/2/6
f 163/4/6 160/4/6 164/4/6
f 161/4/6 162/4/6 165/4/6
f 164/2/6 161/2/6 165/2/6
f 165/4/6 162/4/6 166/4/6
f 163/3/6 164/3/6 167/3/6
f 164/3/6 165/3/6 167/3/6
f 165/3/6 166/3/6 167/3/6
f 167/3/6 166/3/6 168/3/6
