# MagicaVoxel @ ephtracy

# material
mtllib perforator.mtl
usemtl palette

# normals
vn -1 0 0
vn 1 0 0
vn 0 0 1
vn 0 0 -1
vn 0 -1 0
vn 0 1 0

# texcoords
vt 0.00195312 0.5
vt 0.287109 0.5
vt 0.423828 0.5
vt 0.740234 0.5
vt 0.763672 0.5
vt 0.876953 0.5

# verts
v -7 7 -0
v -7 7 -1
v -7 8 -0
v -7 8 -1
v -3 6 -0
v -3 6 -1
v -3 7 1
v -3 7 -0
v -3 7 -1
v -3 7 -2
v -3 8 1
v -3 8 -0
v -3 8 -1
v -3 8 -2
v -3 9 -0
v -3 9 -1
v 0 3 -0
v 0 3 -1
v 0 6 -0
v 0 6 -1
v 4 4 -0
v 4 4 -1
v 4 6 -0
v 4 6 -1
v 5 2 -0
v 5 2 -1
v 5 4 -0
v 5 4 -1
v 1 3 -0
v 1 3 -1
v 1 4 -0
v 1 4 -1
v 2 4 -0
v 2 4 -1
v 2 6 -0
v 2 6 -1
v 5 7 1
v 5 7 -0
v 5 7 -1
v 5 7 -2
v 5 8 1
v 5 8 -0
v 5 8 -1
v 5 8 -2
v 5 9 -0
v 5 9 -1
v 6 5 -0
v 6 5 -1
v 6 8 -0
v 6 8 -1
v 7 2 -0
v 7 2 -1
v 7 5 -0
v 7 5 -1
v -3 7 1
v -3 8 1
v 4 7 1
v 4 8 1
v 5 7 1
v 5 8 1
v -7 7 -0
v -7 8 -0
v -6 7 -0
v -6 8 -0
v -5 7 -0
v -5 8 -0
v -4 7 -0
v -4 8 -0
v -3 6 -0
v -3 7 -0
v -3 8 -0
v -3 9 -0
v 0 3 -0
v 0 6 -0
v 1 3 -0
v 1 4 -0
v 1 6 -0
v 2 4 -0
v 2 6 -0
v 4 4 -0
v 4 6 -0
v 4 7 -0
v 4 8 -0
v 5 2 -0
v 5 4 -0
v 5 6 -0
v 5 7 -0
v 5 8 -0
v 5 9 -0
v 6 2 -0
v 6 4 -0
v 6 5 -0
v 6 8 -0
v 7 2 -0
v 7 5 -0
v -7 7 -1
v -7 8 -1
v -6 7 -1
v -6 8 -1
v -5 7 -1
v -5 8 -1
v -4 7 -1
v -4 8 -1
v -3 6 -1
v -3 7 -1
v -3 8 -1
v -3 9 -1
v 0 3 -1
v 0 6 -1
v 1 3 -1
v 1 4 -1
v 1 6 -1
v 2 4 -1
v 2 6 -1
v 4 4 -1
v 4 6 -1
v 4 7 -1
v 4 8 -1
v 5 2 -1
v 5 4 -1
v 5 6 -1
v 5 7 -1
v 5 8 -1
v 5 9 -1
v 6 2 -1
v 6 4 -1
v 6 5 -1
v 6 8 -1
v 7 2 -1
v 7 5 -1
v -3 7 -2
v -3 8 -2
v 4 7 -2
v 4 8 -2
v 5 7 -2
v 5 8 -2
v 5 2 -0
v 6 2 -0
v 7 2 -0
v 5 2 -1
v 6 2 -1
v 7 2 -1
v 0 3 -0
v 1 3 -0
v 0 3 -1
v 1 3 -1
v 1 4 -0
v 2 4 -0
v 4 4 -0
v 5 4 -0
v 1 4 -1
v 2 4 -1
v 4 4 -1
v 5 4 -1
v -3 6 -0
v 0 6 -0
v 2 6 -0
v 4 6 -0
v -3 6 -1
v 0 6 -1
v 2 6 -1
v 4 6 -1
v -3 7 1
v 4 7 1
v 5 7 1
v -7 7 -0
v -6 7 -0
v -5 7 -0
v -4 7 -0
v -3 7 -0
v 4 7 -0
v 5 7 -0
v -7 7 -1
v -6 7 -1
v -5 7 -1
v -4 7 -1
v -3 7 -1
v 4 7 -1
v 5 7 -1
v -3 7 -2
v 4 7 -2
v 5 7 -2
v 6 5 -0
v 7 5 -0
v 6 5 -1
v 7 5 -1
v -3 8 1
v 4 8 1
v 5 8 1
v -7 8 -0
v -6 8 -0
v -5 8 -0
v -4 8 -0
v -3 8 -0
v 4 8 -0
v 5 8 -0
v 6 8 -0
v -7 8 -1
v -6 8 -1
v -5 8 -1
v -4 8 -1
v -3 8 -1
v 4 8 -1
v 5 8 -1
v 6 8 -1
v -3 8 -2
v 4 8 -2
v 5 8 -2
v -3 9 -0
v 5 9 -0
v -3 9 -1
v 5 9 -1

# faces
f 3/1/1 2/1/1 1/1/1
f 4/1/1 2/1/1 3/1/1
f 8/4/1 6/4/1 5/4/1
f 9/4/1 6/4/1 8/4/1
f 11/5/1 8/5/1 7/5/1
f 12/5/1 8/5/1 11/5/1
f 13/5/1 10/5/1 9/5/1
f 14/5/1 10/5/1 13/5/1
f 15/5/1 13/5/1 12/5/1
f 16/5/1 13/5/1 15/5/1
f 19/6/1 18/6/1 17/6/1
f 20/6/1 18/6/1 19/6/1
f 23/2/1 22/2/1 21/2/1
f 24/2/1 22/2/1 23/2/1
f 27/2/1 26/2/1 25/2/1
f 28/2/1 26/2/1 27/2/1
f 29/6/2 30/6/2 31/6/2
f 31/6/2 30/6/2 32/6/2
f 33/5/2 34/5/2 35/5/2
f 35/5/2 34/5/2 36/5/2
f 37/4/2 38/4/2 41/4/2
f 41/4/2 38/4/2 42/4/2
f 39/4/2 40/4/2 43/4/2
f 43/4/2 40/4/2 44/4/2
f 42/5/2 43/5/2 45/5/2
f 45/5/2 43/5/2 46/5/2
f 47/4/2 48/4/2 49/4/2
f 49/4/2 48/4/2 50/4/2
f 51/4/2 52/4/2 53/4/2
f 53/4/2 52/4/2 54/4/2
f 57/5/3 56/5/3 55/5/3
f 58/5/3 56/5/3 57/5/3
f 59/4/3 58/4/3 57/4/3
f 60/4/3 58/4/3 59/4/3
f 63/1/3 62/1/3 61/1/3
f 64/1/3 62/1/3 63/1/3
f 65/3/3 64/3/3 63/3/3
f 66/3/3 64/3/3 65/3/3
f 67/1/3 66/1/3 65/1/3
f 68/1/3 66/1/3 67/1/3
f 70/3/3 68/3/3 67/3/3
f 71/3/3 68/3/3 70/3/3
f 74/4/3 70/4/3 69/4/3
f 75/6/3 74/6/3 73/6/3
f 76/6/3 74/6/3 75/6/3
f 77/4/3 70/4/3 74/4/3
f 77/6/3 74/6/3 76/6/3
f 78/5/3 77/5/3 76/5/3
f 79/4/3 70/4/3 77/4/3
f 79/5/3 77/5/3 78/5/3
f 81/4/3 70/4/3 79/4/3
f 82/4/3 70/4/3 81/4/3
f 83/5/3 72/5/3 71/5/3
f 85/2/3 81/2/3 80/2/3
f 86/4/3 82/4/3 81/4/3
f 86/2/3 81/2/3 85/2/3
f 87/4/3 82/4/3 86/4/3
f 88/5/3 72/5/3 83/5/3
f 89/5/3 72/5/3 88/5/3
f 90/2/3 85/2/3 84/2/3
f 91/4/3 87/4/3 86/4/3
f 91/2/3 85/2/3 90/2/3
f 91/4/3 86/4/3 85/4/3
f 91/4/3 88/4/3 87/4/3
f 92/4/3 88/4/3 91/4/3
f 93/4/3 88/4/3 92/4/3
f 94/4/3 91/4/3 90/4/3
f 94/4/3 92/4/3 91/4/3
f 95/4/3 92/4/3 94/4/3
f 96/1/4 97/1/4 98/1/4
f 98/1/4 97/1/4 99/1/4
f 98/3/4 99/3/4 100/3/4
f 100/3/4 99/3/4 101/3/4
f 100/1/4 101/1/4 102/1/4
f 102/1/4 101/1/4 103/1/4
f 102/3/4 103/3/4 105/3/4
f 105/3/4 103/3/4 106/3/4
f 104/4/4 105/4/4 109/4/4
f 108/6/4 109/6/4 110/6/4
f 110/6/4 109/6/4 111/6/4
f 109/4/4 105/4/4 112/4/4
f 111/6/4 109/6/4 112/6/4
f 111/5/4 112/5/4 113/5/4
f 112/4/4 105/4/4 114/4/4
f 113/5/4 112/5/4 114/5/4
f 114/4/4 105/4/4 116/4/4
f 116/4/4 105/4/4 117/4/4
f 106/5/4 107/5/4 118/5/4
f 115/2/4 116/2/4 120/2/4
f 116/4/4 117/4/4 121/4/4
f 120/2/4 116/2/4 121/2/4
f 121/4/4 117/4/4 122/4/4
f 118/5/4 107/5/4 123/5/4
f 123/5/4 107/5/4 124/5/4
f 119/2/4 120/2/4 125/2/4
f 121/4/4 122/4/4 126/4/4
f 125/2/4 120/2/4 126/2/4
f 120/4/4 121/4/4 126/4/4
f 122/4/4 123/4/4 126/4/4
f 126/4/4 123/4/4 127/4/4
f 127/4/4 123/4/4 128/4/4
f 125/4/4 126/4/4 129/4/4
f 126/4/4 127/4/4 129/4/4
f 129/4/4 127/4/4 130/4/4
f 131/5/4 132/5/4 133/5/4
f 133/5/4 132/5/4 134/5/4
f 133/4/4 134/4/4 135/4/4
f 135/4/4 134/4/4 136/4/4
f 140/2/5 138/2/5 137/2/5
f 141/4/5 139/4/5 138/4/5
f 141/2/5 138/2/5 140/2/5
f 142/4/5 139/4/5 141/4/5
f 145/6/5 144/6/5 143/6/5
f 146/6/5 144/6/5 145/6/5
f 151/5/5 148/5/5 147/5/5
f 152/5/5 148/5/5 151/5/5
f 153/2/5 150/2/5 149/2/5
f 154/2/5 150/2/5 153/2/5
f 159/4/5 156/4/5 155/4/5
f 160/4/5 156/4/5 159/4/5
f 161/4/5 158/4/5 157/4/5
f 162/4/5 158/4/5 161/4/5
f 170/5/5 164/5/5 163/5/5
f 171/4/5 165/4/5 164/4/5
f 171/5/5 164/5/5 170/5/5
f 172/4/5 165/4/5 171/4/5
f 173/1/5 167/1/5 166/1/5
f 174/3/5 168/3/5 167/3/5
f 174/1/5 167/1/5 173/1/5
f 175/1/5 169/1/5 168/1/5
f 175/3/5 168/3/5 174/3/5
f 176/3/5 170/3/5 169/3/5
f 176/1/5 169/1/5 175/1/5
f 177/3/5 170/3/5 176/3/5
f 180/5/5 178/5/5 177/5/5
f 181/4/5 179/4/5 178/4/5
f 181/5/5 178/5/5 180/5/5
f 182/4/5 179/4/5 181/4/5
f 183/4/6 184/4/6 185/4/6
f 185/4/6 184/4/6 186/4/6
f 187/5/6 188/5/6 194/5/6
f 188/4/6 189/4/6 195/4/6
f 194/5/6 188/5/6 195/5/6
f 195/4/6 189/4/6 196/4/6
f 190/1/6 191/1/6 198/1/6
f 191/3/6 192/3/6 199/3/6
f 198/1/6 191/1/6 199/1/6
f 192/1/6 193/1/6 200/1/6
f 199/3/6 192/3/6 200/3/6
f 193/3/6 194/3/6 201/3/6
f 200/1/6 193/1/6 201/1/6
f 201/3/6 194/3/6 202/3/6
f 196/4/6 197/4/6 204/4/6
f 204/4/6 197/4/6 205/4/6
f 202/5/6 203/5/6 206/5/6
f 203/4/6 204/4/6 207/4/6
f 206/5/6 203/5/6 207/5/6
f 207/4/6 204/4/6 208/4/6
f 209/5/6 210/5/6 211/5/6
f 211/5/6 210/5/6 212/5/6
