# MagicaVoxel @ ephtracy

# material
mtllib recorder.mtl
usemtl palette

# normals
vn -1 0 0
vn 1 0 0
vn 0 0 1
vn 0 0 -1
vn 0 -1 0
vn 0 1 0

# texcoords
vt 0.841797 0.5
vt 0.884766 0.5
vt 0.958984 0.5
vt 0.974609 0.5
vt 0.982422 0.5
vt 0.986328 0.5

# verts
v -4 1 3
v -4 1 -2
v -4 4 3
v -4 4 -2
v -3 0 2
v -3 0 -2
v -3 1 2
v -3 1 -2
v -3 1 -3
v -3 4 2
v -3 4 -2
v -3 4 -3
v -3 5 2
v -3 5 -0
v -3 5 -1
v -3 5 -2
v -3 7 -0
v -3 7 -1
v -2 0 3
v -2 0 2
v -2 0 -2
v -2 0 -3
v -2 1 3
v -2 1 2
v -2 1 -2
v -2 1 -3
v -2 1 -4
v -2 2 -3
v -2 2 -4
v -2 4 3
v -2 4 2
v -2 4 -2
v -2 4 -3
v -2 5 3
v -2 5 2
v -2 5 -2
v -2 5 -3
v 1 1 -3
v 1 1 -4
v 1 2 -3
v 1 2 -4
v 2 5 -0
v 2 5 -1
v 2 6 -0
v 2 6 -1
v -2 5 -0
v -2 5 -1
v -2 6 -0
v -2 6 -1
v -1 1 -3
v -1 1 -4
v -1 2 -3
v -1 2 -4
v 2 0 3
v 2 0 2
v 2 0 -2
v 2 0 -3
v 2 1 3
v 2 1 2
v 2 1 -2
v 2 1 -3
v 2 1 -4
v 2 2 -3
v 2 2 -4
v 2 4 3
v 2 4 2
v 2 4 -2
v 2 4 -3
v 2 5 3
v 2 5 2
v 2 5 -2
v 2 5 -3
v 3 0 2
v 3 0 -2
v 3 1 2
v 3 1 -2
v 3 1 -3
v 3 4 2
v 3 4 -2
v 3 4 -3
v 3 5 2
v 3 5 -0
v 3 5 -1
v 3 5 -2
v 3 7 -0
v 3 7 -1
v 4 1 3
v 4 1 -2
v 4 4 3
v 4 4 -2
v -4 1 3
v -4 4 3
v -2 0 3
v -2 1 3
v -2 4 3
v -2 5 3
v 2 0 3
v 2 1 3
v 2 4 3
v 2 5 3
v 4 1 3
v 4 4 3
v -3 0 2
v -3 1 2
v -3 4 2
v -3 5 2
v -2 0 2
v -2 1 2
v -2 4 2
v -2 5 2
v 2 0 2
v 2 1 2
v 2 4 2
v 2 5 2
v 3 0 2
v 3 1 2
v 3 4 2
v 3 5 2
v -3 5 -0
v -3 7 -0
v -2 5 -0
v -2 6 -0
v 2 5 -0
v 2 6 -0
v 3 5 -0
v 3 7 -0
v -3 5 -1
v -3 7 -1
v -2 5 -1
v -2 6 -1
v 2 5 -1
v 2 6 -1
v 3 5 -1
v 3 7 -1
v -4 1 -2
v -4 4 -2
v -3 0 -2
v -3 1 -2
v -3 4 -2
v -3 5 -2
v -2 0 -2
v -2 1 -2
v -2 4 -2
v -2 5 -2
v 2 0 -2
v 2 1 -2
v 2 4 -2
v 2 5 -2
v 3 0 -2
v 3 1 -2
v 3 4 -2
v 3 5 -2
v 4 1 -2
v 4 4 -2
v -3 1 -3
v -3 4 -3
v -2 0 -3
v -2 1 -3
v -2 2 -3
v -2 3 -3
v -2 4 -3
v -2 5 -3
v -1 1 -3
v -1 2 -3
v -1 3 -3
v 1 1 -3
v 1 2 -3
v 1 3 -3
v 1 4 -3
v 2 0 -3
v 2 1 -3
v 2 2 -3
v 2 3 -3
v 2 4 -3
v 2 5 -3
v 3 1 -3
v 3 4 -3
v -2 1 -4
v -2 2 -4
v -1 1 -4
v -1 2 -4
v 1 1 -4
v 1 2 -4
v 2 1 -4
v 2 2 -4
v -2 0 3
v 2 0 3
v -3 0 2
v -2 0 2
v 2 0 2
v 3 0 2
v -3 0 -2
v -2 0 -2
v 2 0 -2
v 3 0 -2
v -2 0 -3
v 2 0 -3
v -4 1 3
v -2 1 3
v 2 1 3
v 4 1 3
v -3 1 2
v -2 1 2
v 2 1 2
v 3 1 2
v -4 1 -2
v -3 1 -2
v -2 1 -2
v 2 1 -2
v 3 1 -2
v 4 1 -2
v -3 1 -3
v -2 1 -3
v -1 1 -3
v 1 1 -3
v 2 1 -3
v 3 1 -3
v -2 1 -4
v -1 1 -4
v 1 1 -4
v 2 1 -4
v -2 6 -0
v 2 6 -0
v -2 6 -1
v 2 6 -1
v -2 2 -3
v -1 2 -3
v 1 2 -3
v 2 2 -3
v -2 2 -4
v -1 2 -4
v 1 2 -4
v 2 2 -4
v -4 4 3
v -2 4 3
v 2 4 3
v 4 4 3
v -3 4 2
v -2 4 2
v 2 4 2
v 3 4 2
v -4 4 -2
v -3 4 -2
v -2 4 -2
v 2 4 -2
v 3 4 -2
v 4 4 -2
v -3 4 -3
v -2 4 -3
v 2 4 -3
v 3 4 -3
v -2 5 3
v 2 5 3
v -3 5 2
v -2 5 2
v 2 5 2
v 3 5 2
v -3 5 -0
v -2 5 -0
v 2 5 -0
v 3 5 -0
v -3 5 -1
v -2 5 -1
v 2 5 -1
v 3 5 -1
v -3 5 -2
v -2 5 -2
v 2 5 -2
v 3 5 -2
v -2 5 -3
v 2 5 -3
v -3 7 -0
v 3 7 -0
v -3 7 -1
v 3 7 -1

# faces
f 3/6/1 2/6/1 1/6/1
f 4/6/1 2/6/1 3/6/1
f 7/6/1 6/6/1 5/6/1
f 8/6/1 6/6/1 7/6/1
f 11/5/1 9/5/1 8/5/1
f 12/5/1 9/5/1 11/5/1
f 13/6/1 11/6/1 10/6/1
f 14/6/1 11/6/1 13/6/1
f 15/6/1 11/6/1 14/6/1
f 16/6/1 11/6/1 15/6/1
f 17/6/1 15/6/1 14/6/1
f 18/6/1 15/6/1 17/6/1
f 23/6/1 20/6/1 19/6/1
f 24/6/1 20/6/1 23/6/1
f 25/5/1 22/5/1 21/5/1
f 26/5/1 22/5/1 25/5/1
f 28/4/1 27/4/1 26/4/1
f 29/4/1 27/4/1 28/4/1
f 34/6/1 31/6/1 30/6/1
f 35/6/1 31/6/1 34/6/1
f 36/5/1 33/5/1 32/5/1
f 37/5/1 33/5/1 36/5/1
f 40/4/1 39/4/1 38/4/1
f 41/4/1 39/4/1 40/4/1
f 44/6/1 43/6/1 42/6/1
f 45/6/1 43/6/1 44/6/1
f 46/6/2 47/6/2 48/6/2
f 48/6/2 47/6/2 49/6/2
f 50/4/2 51/4/2 52/4/2
f 52/4/2 51/4/2 53/4/2
f 54/6/2 55/6/2 58/6/2
f 58/6/2 55/6/2 59/6/2
f 56/5/2 57/5/2 60/5/2
f 60/5/2 57/5/2 61/5/2
f 61/4/2 62/4/2 63/4/2
f 63/4/2 62/4/2 64/4/2
f 65/6/2 66/6/2 69/6/2
f 69/6/2 66/6/2 70/6/2
f 67/5/2 68/5/2 71/5/2
f 71/5/2 68/5/2 72/5/2
f 73/6/2 74/6/2 75/6/2
f 75/6/2 74/6/2 76/6/2
f 76/5/2 77/5/2 79/5/2
f 79/5/2 77/5/2 80/5/2
f 78/6/2 79/6/2 81/6/2
f 81/6/2 79/6/2 82/6/2
f 82/6/2 79/6/2 83/6/2
f 83/6/2 79/6/2 84/6/2
f 82/6/2 83/6/2 85/6/2
f 85/6/2 83/6/2 86/6/2
f 87/6/2 88/6/2 89/6/2
f 89/6/2 88/6/2 90/6/2
f 94/6/3 92/6/3 91/6/3
f 95/6/3 92/6/3 94/6/3
f 97/6/3 94/6/3 93/6/3
f 97/6/3 96/6/3 95/6/3
f 97/6/3 95/6/3 94/6/3
f 98/6/3 96/6/3 97/6/3
f 99/6/3 96/6/3 98/6/3
f 100/6/3 96/6/3 99/6/3
f 101/6/3 99/6/3 98/6/3
f 102/6/3 99/6/3 101/6/3
f 107/6/3 104/6/3 103/6/3
f 108/6/3 104/6/3 107/6/3
f 109/6/3 106/6/3 105/6/3
f 110/6/3 106/6/3 109/6/3
f 115/6/3 112/6/3 111/6/3
f 116/6/3 112/6/3 115/6/3
f 117/6/3 114/6/3 113/6/3
f 118/6/3 114/6/3 117/6/3
f 121/6/3 120/6/3 119/6/3
f 122/6/3 120/6/3 121/6/3
f 124/6/3 120/6/3 122/6/3
f 125/6/3 124/6/3 123/6/3
f 126/6/3 120/6/3 124/6/3
f 126/6/3 124/6/3 125/6/3
f 127/6/4 128/6/4 129/6/4
f 129/6/4 128/6/4 130/6/4
f 130/6/4 128/6/4 132/6/4
f 131/6/4 132/6/4 133/6/4
f 132/6/4 128/6/4 134/6/4
f 133/6/4 132/6/4 134/6/4
f 135/6/4 136/6/4 138/6/4
f 138/6/4 136/6/4 139/6/4
f 137/6/4 138/6/4 141/6/4
f 141/6/4 138/6/4 142/6/4
f 139/6/4 140/6/4 143/6/4
f 143/6/4 140/6/4 144/6/4
f 145/6/4 146/6/4 149/6/4
f 149/6/4 146/6/4 150/6/4
f 147/6/4 148/6/4 151/6/4
f 151/6/4 148/6/4 152/6/4
f 150/6/4 151/6/4 153/6/4
f 153/6/4 151/6/4 154/6/4
f 155/5/4 156/5/4 158/5/4
f 158/5/4 156/5/4 159/5/4
f 159/5/4 156/5/4 160/5/4
f 160/5/4 156/5/4 161/5/4
f 157/5/4 158/5/4 163/5/4
f 159/2/4 160/2/4 164/2/4
f 160/3/4 161/3/4 165/3/4
f 164/2/4 160/2/4 165/2/4
f 163/5/4 164/5/4 166/5/4
f 157/5/4 163/5/4 166/5/4
f 164/3/4 165/3/4 167/3/4
f 166/5/4 164/5/4 167/5/4
f 165/3/4 161/3/4 168/3/4
f 167/3/4 165/3/4 168/3/4
f 161/5/4 162/5/4 169/5/4
f 168/3/4 161/3/4 169/3/4
f 157/5/4 166/5/4 170/5/4
f 170/5/4 166/5/4 171/5/4
f 167/2/4 168/2/4 172/2/4
f 168/1/4 169/1/4 173/1/4
f 172/2/4 168/2/4 173/2/4
f 169/5/4 162/5/4 174/5/4
f 173/1/4 169/1/4 174/1/4
f 174/5/4 162/5/4 175/5/4
f 172/5/4 173/5/4 176/5/4
f 173/5/4 174/5/4 176/5/4
f 171/5/4 172/5/4 176/5/4
f 176/5/4 174/5/4 177/5/4
f 178/4/4 179/4/4 180/4/4
f 180/4/4 179/4/4 181/4/4
f 182/4/4 183/4/4 184/4/4
f 184/4/4 183/4/4 185/4/4
f 189/6/5 187/6/5 186/6/5
f 190/6/5 187/6/5 189/6/5
f 192/6/5 189/6/5 188/6/5
f 192/6/5 191/6/5 190/6/5
f 192/6/5 190/6/5 189/6/5
f 193/6/5 191/6/5 192/6/5
f 194/6/5 191/6/5 193/6/5
f 195/6/5 191/6/5 194/6/5
f 196/5/5 194/5/5 193/5/5
f 197/5/5 194/5/5 196/5/5
f 202/6/5 199/6/5 198/6/5
f 203/6/5 199/6/5 202/6/5
f 204/6/5 201/6/5 200/6/5
f 205/6/5 201/6/5 204/6/5
f 206/6/5 202/6/5 198/6/5
f 207/6/5 202/6/5 206/6/5
f 210/6/5 201/6/5 205/6/5
f 211/6/5 201/6/5 210/6/5
f 212/5/5 208/5/5 207/5/5
f 213/5/5 208/5/5 212/5/5
f 216/5/5 210/5/5 209/5/5
f 217/5/5 210/5/5 216/5/5
f 218/4/5 214/4/5 213/4/5
f 219/4/5 214/4/5 218/4/5
f 220/4/5 216/4/5 215/4/5
f 221/4/5 216/4/5 220/4/5
f 224/6/5 223/6/5 222/6/5
f 225/6/5 223/6/5 224/6/5
f 226/4/6 227/4/6 230/4/6
f 230/4/6 227/4/6 231/4/6
f 228/4/6 229/4/6 232/4/6
f 232/4/6 229/4/6 233/4/6
f 234/6/6 235/6/6 238/6/6
f 238/6/6 235/6/6 239/6/6
f 236/6/6 237/6/6 240/6/6
f 240/6/6 237/6/6 241/6/6
f 234/6/6 238/6/6 242/6/6
f 242/6/6 238/6/6 243/6/6
f 241/6/6 237/6/6 246/6/6
f 246/6/6 237/6/6 247/6/6
f 243/5/6 244/5/6 248/5/6
f 248/5/6 244/5/6 249/5/6
f 245/5/6 246/5/6 250/5/6
f 250/5/6 246/5/6 251/5/6
f 252/6/6 253/6/6 255/6/6
f 255/6/6 253/6/6 256/6/6
f 254/6/6 255/6/6 258/6/6
f 256/6/6 257/6/6 258/6/6
f 255/6/6 256/6/6 258/6/6
f 258/6/6 257/6/6 259/6/6
f 259/6/6 257/6/6 260/6/6
f 260/6/6 257/6/6 261/6/6
f 259/6/6 260/6/6 263/6/6
f 263/6/6 260/6/6 264/6/6
f 262/6/6 263/6/6 266/6/6
f 264/6/6 265/6/6 266/6/6
f 263/6/6 264/6/6 266/6/6
f 266/6/6 265/6/6 267/6/6
f 267/6/6 265/6/6 268/6/6
f 268/6/6 265/6/6 269/6/6
f 267/5/6 268/5/6 270/5/6
f 270/5/6 268/5/6 271/5/6
f 272/6/6 273/6/6 274/6/6
f 274/6/6 273/6/6 275/6/6
