# MagicaVoxel @ ephtracy

# material
mtllib speaker1_2.mtl
usemtl palette

# normals
vn -1 0 0
vn 1 0 0
vn 0 0 1
vn 0 0 -1
vn 0 -1 0
vn 0 1 0

# texcoords
vt 0.951172 0.5
vt 0.955078 0.5
vt 0.978516 0.5
vt 0.982422 0.5
vt 0.990234 0.5

# verts
v -4 0 4
v -4 0 -3
v -4 11 4
v -4 11 -3
v 2 3 1
v 2 3 -0
v 2 4 1
v 2 4 -0
v 2 8 1
v 2 8 -0
v 2 9 1
v 2 9 -0
v 3 0 4
v 3 0 3
v 3 0 -2
v 3 0 -3
v 3 1 2
v 3 1 -1
v 3 2 3
v 3 2 2
v 3 2 -1
v 3 2 -2
v 3 3 1
v 3 3 -0
v 3 4 1
v 3 4 -0
v 3 5 3
v 3 5 2
v 3 5 -1
v 3 5 -2
v 3 6 3
v 3 6 2
v 3 6 -1
v 3 6 -2
v 3 7 3
v 3 7 2
v 3 7 -1
v 3 7 -2
v 3 8 1
v 3 8 -0
v 3 9 1
v 3 9 -0
v 3 10 3
v 3 10 2
v 3 10 -1
v 3 10 -2
v 3 11 4
v 3 11 3
v 3 11 2
v 3 11 -1
v 3 11 -2
v 3 11 -3
v -4 0 4
v -4 11 4
v 2 0 4
v 2 11 4
v 3 0 4
v 3 11 4
v 2 3 -0
v 2 4 -0
v 2 8 -0
v 2 9 -0
v 3 3 -0
v 3 4 -0
v 3 8 -0
v 3 9 -0
v 2 3 1
v 2 4 1
v 2 8 1
v 2 9 1
v 3 3 1
v 3 4 1
v 3 8 1
v 3 9 1
v -4 0 -3
v -4 11 -3
v 2 0 -3
v 2 11 -3
v 3 0 -3
v 3 11 -3
v -4 0 4
v 2 0 4
v 3 0 4
v 2 0 3
v 3 0 3
v 2 0 -2
v 3 0 -2
v -4 0 -3
v 2 0 -3
v 3 0 -3
v 2 4 1
v 3 4 1
v 2 4 -0
v 3 4 -0
v 2 9 1
v 3 9 1
v 2 9 -0
v 3 9 -0
v 2 3 1
v 3 3 1
v 2 3 -0
v 3 3 -0
v 2 8 1
v 3 8 1
v 2 8 -0
v 3 8 -0
v -4 11 4
v 2 11 4
v 3 11 4
v 2 11 3
v 3 11 3
v 2 11 2
v 3 11 2
v 2 11 -1
v 3 11 -1
v 2 11 -2
v 3 11 -2
v -4 11 -3
v 2 11 -3
v 3 11 -3

# faces
f 3/4/1 2/4/1 1/4/1
f 4/4/1 2/4/1 3/4/1
f 5/4/2 6/4/2 7/4/2
f 7/4/2 6/4/2 8/4/2
f 9/4/2 10/4/2 11/4/2
f 11/4/2 10/4/2 12/4/2
f 14/4/2 15/4/2 17/4/2
f 17/4/2 15/4/2 18/4/2
f 13/3/2 14/3/2 19/3/2
f 14/4/2 17/4/2 19/4/2
f 17/2/2 18/2/2 20/2/2
f 19/4/2 17/4/2 20/4/2
f 18/4/2 15/4/2 21/4/2
f 20/2/2 18/2/2 21/2/2
f 15/3/2 16/3/2 22/3/2
f 21/4/2 15/4/2 22/4/2
f 20/5/2 21/5/2 23/5/2
f 23/5/2 21/5/2 24/5/2
f 20/5/2 23/5/2 25/5/2
f 24/5/2 21/5/2 26/5/2
f 19/2/2 20/2/2 27/2/2
f 13/3/2 19/3/2 27/3/2
f 25/5/2 26/5/2 28/5/2
f 27/2/2 20/2/2 28/2/2
f 20/5/2 25/5/2 28/5/2
f 26/5/2 21/5/2 29/5/2
f 28/5/2 26/5/2 29/5/2
f 21/2/2 22/2/2 29/2/2
f 22/3/2 16/3/2 30/3/2
f 29/2/2 22/2/2 30/2/2
f 13/3/2 27/3/2 31/3/2
f 27/4/2 28/4/2 31/4/2
f 28/2/2 29/2/2 32/2/2
f 31/4/2 28/4/2 32/4/2
f 29/4/2 30/4/2 33/4/2
f 32/2/2 29/2/2 33/2/2
f 30/3/2 16/3/2 34/3/2
f 33/4/2 30/4/2 34/4/2
f 13/3/2 31/3/2 35/3/2
f 31/1/2 32/1/2 35/1/2
f 32/4/2 33/4/2 36/4/2
f 35/1/2 32/1/2 36/1/2
f 33/1/2 34/1/2 37/1/2
f 36/4/2 33/4/2 37/4/2
f 34/3/2 16/3/2 38/3/2
f 37/1/2 34/1/2 38/1/2
f 36/2/2 37/2/2 39/2/2
f 39/2/2 37/2/2 40/2/2
f 36/2/2 39/2/2 41/2/2
f 40/2/2 37/2/2 42/2/2
f 13/3/2 35/3/2 43/3/2
f 35/4/2 36/4/2 43/4/2
f 41/2/2 42/2/2 44/2/2
f 43/4/2 36/4/2 44/4/2
f 36/2/2 41/2/2 44/2/2
f 42/2/2 37/2/2 45/2/2
f 44/2/2 42/2/2 45/2/2
f 37/4/2 38/4/2 45/4/2
f 38/3/2 16/3/2 46/3/2
f 45/4/2 38/4/2 46/4/2
f 13/3/2 43/3/2 47/3/2
f 43/1/2 44/1/2 48/1/2
f 47/3/2 43/3/2 48/3/2
f 44/4/2 45/4/2 49/4/2
f 48/1/2 44/1/2 49/1/2
f 45/1/2 46/1/2 50/1/2
f 49/4/2 45/4/2 50/4/2
f 46/3/2 16/3/2 51/3/2
f 50/1/2 46/1/2 51/1/2
f 51/3/2 16/3/2 52/3/2
f 55/4/3 54/4/3 53/4/3
f 56/4/3 54/4/3 55/4/3
f 57/3/3 56/3/3 55/3/3
f 58/3/3 56/3/3 57/3/3
f 63/5/3 60/5/3 59/5/3
f 64/5/3 60/5/3 63/5/3
f 65/2/3 62/2/3 61/2/3
f 66/2/3 62/2/3 65/2/3
f 67/5/4 68/5/4 71/5/4
f 71/5/4 68/5/4 72/5/4
f 69/2/4 70/2/4 73/2/4
f 73/2/4 70/2/4 74/2/4
f 75/4/4 76/4/4 77/4/4
f 77/4/4 76/4/4 78/4/4
f 77/3/4 78/3/4 79/3/4
f 79/3/4 78/3/4 80/3/4
f 84/4/5 82/4/5 81/4/5
f 84/3/5 83/3/5 82/3/5
f 85/3/5 83/3/5 84/3/5
f 86/4/5 84/4/5 81/4/5
f 86/4/5 85/4/5 84/4/5
f 87/4/5 85/4/5 86/4/5
f 88/4/5 86/4/5 81/4/5
f 89/3/5 87/3/5 86/3/5
f 89/4/5 86/4/5 88/4/5
f 90/3/5 87/3/5 89/3/5
f 93/5/5 92/5/5 91/5/5
f 94/5/5 92/5/5 93/5/5
f 97/2/5 96/2/5 95/2/5
f 98/2/5 96/2/5 97/2/5
f 99/5/6 100/5/6 101/5/6
f 101/5/6 100/5/6 102/5/6
f 103/2/6 104/2/6 105/2/6
f 105/2/6 104/2/6 106/2/6
f 107/4/6 108/4/6 110/4/6
f 108/3/6 109/3/6 110/3/6
f 110/3/6 109/3/6 111/3/6
f 107/4/6 110/4/6 112/4/6
f 110/1/6 111/1/6 112/1/6
f 112/1/6 111/1/6 113/1/6
f 107/4/6 112/4/6 114/4/6
f 112/4/6 113/4/6 114/4/6
f 114/4/6 113/4/6 115/4/6
f 107/4/6 114/4/6 116/4/6
f 114/1/6 115/1/6 116/1/6
f 116/1/6 115/1/6 117/1/6
f 107/4/6 116/4/6 118/4/6
f 116/3/6 117/3/6 119/3/6
f 118/4/6 116/4/6 119/4/6
f 119/3/6 117/3/6 120/3/6
