# MagicaVoxel @ ephtracy

# material
mtllib speaker2.mtl
usemtl palette

# normals
vn -1 0 0
vn 1 0 0
vn 0 0 1
vn 0 0 -1
vn 0 -1 0
vn 0 1 0

# texcoords
vt 0.978516 0.5
vt 0.982422 0.5
vt 0.990234 0.5
vt 0.994141 0.5

# verts
v -4 0 4
v -4 0 -3
v -4 1 3
v -4 1 -2
v -4 10 3
v -4 10 -2
v -4 11 4
v -4 11 -3
v 3 0 4
v 3 0 3
v 3 0 2
v 3 0 1
v 3 0 -0
v 3 0 -1
v 3 0 -2
v 3 0 -3
v 3 1 3
v 3 1 2
v 3 1 1
v 3 1 -0
v 3 1 -1
v 3 1 -2
v 3 2 3
v 3 2 2
v 3 2 1
v 3 2 -0
v 3 2 -1
v 3 2 -2
v 3 3 3
v 3 3 2
v 3 3 1
v 3 3 -0
v 3 3 -1
v 3 3 -2
v 3 4 3
v 3 4 2
v 3 4 1
v 3 4 -0
v 3 4 -1
v 3 4 -2
v 3 5 3
v 3 5 2
v 3 5 1
v 3 5 -0
v 3 5 -1
v 3 5 -2
v 3 6 3
v 3 6 2
v 3 6 1
v 3 6 -0
v 3 6 -1
v 3 6 -2
v 3 7 3
v 3 7 2
v 3 7 1
v 3 7 -0
v 3 7 -1
v 3 7 -2
v 3 8 3
v 3 8 2
v 3 8 1
v 3 8 -0
v 3 8 -1
v 3 8 -2
v 3 9 3
v 3 9 2
v 3 9 1
v 3 9 -0
v 3 9 -1
v 3 9 -2
v 3 10 3
v 3 10 2
v 3 10 1
v 3 10 -0
v 3 10 -1
v 3 10 -2
v 3 11 4
v 3 11 3
v 3 11 2
v 3 11 1
v 3 11 -0
v 3 11 -1
v 3 11 -2
v 3 11 -3
v -4 0 4
v -4 11 4
v -3 1 4
v -3 10 4
v 2 1 4
v 2 10 4
v 3 0 4
v 3 11 4
v -4 0 -3
v -4 11 -3
v -3 1 -3
v -3 10 -3
v 2 1 -3
v 2 10 -3
v 3 0 -3
v 3 11 -3
v -4 0 4
v 3 0 4
v -3 0 3
v 2 0 3
v 3 0 3
v 2 0 2
v 3 0 2
v 2 0 1
v 3 0 1
v 2 0 -0
v 3 0 -0
v 2 0 -1
v 3 0 -1
v -3 0 -2
v 2 0 -2
v 3 0 -2
v -4 0 -3
v 3 0 -3
v -4 11 4
v 3 11 4
v -3 11 3
v 2 11 3
v 3 11 3
v 2 11 2
v 3 11 2
v 2 11 1
v 3 11 1
v 2 11 -0
v 3 11 -0
v 2 11 -1
v 3 11 -1
v -3 11 -2
v 2 11 -2
v 3 11 -2
v -4 11 -3
v 3 11 -3

# faces
f 3/1/1 2/1/1 1/1/1
f 4/1/1 2/1/1 3/1/1
f 5/1/1 3/1/1 1/1/1
f 5/2/1 4/2/1 3/2/1
f 6/1/1 2/1/1 4/1/1
f 6/2/1 4/2/1 5/2/1
f 7/1/1 5/1/1 1/1/1
f 7/1/1 6/1/1 5/1/1
f 8/1/1 2/1/1 6/1/1
f 8/1/1 6/1/1 7/1/1
f 9/1/2 10/1/2 17/1/2
f 10/4/2 11/4/2 17/4/2
f 11/3/2 12/3/2 18/3/2
f 17/4/2 11/4/2 18/4/2
f 12/4/2 13/4/2 19/4/2
f 18/3/2 12/3/2 19/3/2
f 13/3/2 14/3/2 20/3/2
f 19/4/2 13/4/2 20/4/2
f 14/4/2 15/4/2 21/4/2
f 20/3/2 14/3/2 21/3/2
f 15/1/2 16/1/2 22/1/2
f 21/4/2 15/4/2 22/4/2
f 9/1/2 17/1/2 23/1/2
f 17/3/2 18/3/2 23/3/2
f 18/4/2 19/4/2 24/4/2
f 23/3/2 18/3/2 24/3/2
f 19/3/2 20/3/2 25/3/2
f 24/4/2 19/4/2 25/4/2
f 20/4/2 21/4/2 26/4/2
f 25/3/2 20/3/2 26/3/2
f 21/3/2 22/3/2 27/3/2
f 26/4/2 21/4/2 27/4/2
f 22/1/2 16/1/2 28/1/2
f 27/3/2 22/3/2 28/3/2
f 23/4/2 24/4/2 29/4/2
f 9/1/2 23/1/2 29/1/2
f 24/3/2 25/3/2 30/3/2
f 29/4/2 24/4/2 30/4/2
f 25/4/2 26/4/2 31/4/2
f 30/3/2 25/3/2 31/3/2
f 26/3/2 27/3/2 32/3/2
f 31/4/2 26/4/2 32/4/2
f 27/4/2 28/4/2 33/4/2
f 32/3/2 27/3/2 33/3/2
f 28/1/2 16/1/2 34/1/2
f 33/4/2 28/4/2 34/4/2
f 9/1/2 29/1/2 35/1/2
f 29/3/2 30/3/2 35/3/2
f 30/4/2 31/4/2 36/4/2
f 35/3/2 30/3/2 36/3/2
f 31/3/2 32/3/2 37/3/2
f 36/4/2 31/4/2 37/4/2
f 32/4/2 33/4/2 38/4/2
f 37/3/2 32/3/2 38/3/2
f 33/3/2 34/3/2 39/3/2
f 38/4/2 33/4/2 39/4/2
f 34/1/2 16/1/2 40/1/2
f 39/3/2 34/3/2 40/3/2
f 9/1/2 35/1/2 41/1/2
f 35/4/2 36/4/2 41/4/2
f 36/3/2 37/3/2 42/3/2
f 41/4/2 36/4/2 42/4/2
f 37/4/2 38/4/2 43/4/2
f 42/3/2 37/3/2 43/3/2
f 38/3/2 39/3/2 44/3/2
f 43/4/2 38/4/2 44/4/2
f 39/4/2 40/4/2 45/4/2
f 44/3/2 39/3/2 45/3/2
f 40/1/2 16/1/2 46/1/2
f 45/4/2 40/4/2 46/4/2
f 9/1/2 41/1/2 47/1/2
f 41/3/2 42/3/2 47/3/2
f 42/4/2 43/4/2 48/4/2
f 47/3/2 42/3/2 48/3/2
f 43/3/2 44/3/2 49/3/2
f 48/4/2 43/4/2 49/4/2
f 44/4/2 45/4/2 50/4/2
f 49/3/2 44/3/2 50/3/2
f 45/3/2 46/3/2 51/3/2
f 50/4/2 45/4/2 51/4/2
f 46/1/2 16/1/2 52/1/2
f 51/3/2 46/3/2 52/3/2
f 9/1/2 47/1/2 53/1/2
f 47/4/2 48/4/2 53/4/2
f 48/3/2 49/3/2 54/3/2
f 53/4/2 48/4/2 54/4/2
f 49/4/2 50/4/2 55/4/2
f 54/3/2 49/3/2 55/3/2
f 50/3/2 51/3/2 56/3/2
f 55/4/2 50/4/2 56/4/2
f 51/4/2 52/4/2 57/4/2
f 56/3/2 51/3/2 57/3/2
f 52/1/2 16/1/2 58/1/2
f 57/4/2 52/4/2 58/4/2
f 9/1/2 53/1/2 59/1/2
f 53/3/2 54/3/2 59/3/2
f 54/4/2 55/4/2 60/4/2
f 59/3/2 54/3/2 60/3/2
f 55/3/2 56/3/2 61/3/2
f 60/4/2 55/4/2 61/4/2
f 56/4/2 57/4/2 62/4/2
f 61/3/2 56/3/2 62/3/2
f 57/3/2 58/3/2 63/3/2
f 62/4/2 57/4/2 63/4/2
f 58/1/2 16/1/2 64/1/2
f 63/3/2 58/3/2 64/3/2
f 9/1/2 59/1/2 65/1/2
f 59/4/2 60/4/2 65/4/2
f 60/3/2 61/3/2 66/3/2
f 65/4/2 60/4/2 66/4/2
f 61/4/2 62/4/2 67/4/2
f 66/3/2 61/3/2 67/3/2
f 62/3/2 63/3/2 68/3/2
f 67/4/2 62/4/2 68/4/2
f 63/4/2 64/4/2 69/4/2
f 68/3/2 63/3/2 69/3/2
f 64/1/2 16/1/2 70/1/2
f 69/4/2 64/4/2 70/4/2
f 9/1/2 65/1/2 71/1/2
f 65/3/2 66/3/2 71/3/2
f 66/4/2 67/4/2 72/4/2
f 71/3/2 66/3/2 72/3/2
f 67/3/2 68/3/2 73/3/2
f 72/4/2 67/4/2 73/4/2
f 68/4/2 69/4/2 74/4/2
f 73/3/2 68/3/2 74/3/2
f 69/3/2 70/3/2 75/3/2
f 74/4/2 69/4/2 75/4/2
f 70/1/2 16/1/2 76/1/2
f 75/3/2 70/3/2 76/3/2
f 9/1/2 71/1/2 77/1/2
f 71/4/2 72/4/2 78/4/2
f 77/1/2 71/1/2 78/1/2
f 72/3/2 73/3/2 79/3/2
f 78/4/2 72/4/2 79/4/2
f 73/4/2 74/4/2 80/4/2
f 79/3/2 73/3/2 80/3/2
f 74/3/2 75/3/2 81/3/2
f 80/4/2 74/4/2 81/4/2
f 75/4/2 76/4/2 82/4/2
f 81/3/2 75/3/2 82/3/2
f 76/1/2 16/1/2 83/1/2
f 82/4/2 76/4/2 83/4/2
f 83/1/2 16/1/2 84/1/2
f 87/1/3 86/1/3 85/1/3
f 88/1/3 86/1/3 87/1/3
f 89/1/3 87/1/3 85/1/3
f 89/2/3 88/2/3 87/2/3
f 90/1/3 86/1/3 88/1/3
f 90/2/3 88/2/3 89/2/3
f 91/1/3 89/1/3 85/1/3
f 91/1/3 90/1/3 89/1/3
f 92/1/3 86/1/3 90/1/3
f 92/1/3 90/1/3 91/1/3
f 93/1/4 94/1/4 95/1/4
f 95/1/4 94/1/4 96/1/4
f 93/1/4 95/1/4 97/1/4
f 95/2/4 96/2/4 97/2/4
f 96/1/4 94/1/4 98/1/4
f 97/2/4 96/2/4 98/2/4
f 93/1/4 97/1/4 99/1/4
f 97/1/4 98/1/4 99/1/4
f 98/1/4 94/1/4 100/1/4
f 99/1/4 98/1/4 100/1/4
f 103/1/5 102/1/5 101/1/5
f 104/1/5 102/1/5 103/1/5
f 105/1/5 102/1/5 104/1/5
f 106/2/5 104/2/5 103/2/5
f 106/4/5 105/4/5 104/4/5
f 107/4/5 105/4/5 106/4/5
f 108/2/5 106/2/5 103/2/5
f 108/3/5 107/3/5 106/3/5
f 109/3/5 107/3/5 108/3/5
f 110/2/5 108/2/5 103/2/5
f 110/4/5 109/4/5 108/4/5
f 111/4/5 109/4/5 110/4/5
f 112/2/5 110/2/5 103/2/5
f 112/3/5 111/3/5 110/3/5
f 113/3/5 111/3/5 112/3/5
f 114/1/5 103/1/5 101/1/5
f 114/2/5 112/2/5 103/2/5
f 115/4/5 113/4/5 112/4/5
f 115/2/5 112/2/5 114/2/5
f 116/4/5 113/4/5 115/4/5
f 117/1/5 114/1/5 101/1/5
f 117/1/5 115/1/5 114/1/5
f 117/1/5 116/1/5 115/1/5
f 118/1/5 116/1/5 117/1/5
f 119/1/6 120/1/6 121/1/6
f 121/1/6 120/1/6 122/1/6
f 122/1/6 120/1/6 123/1/6
f 121/2/6 122/2/6 124/2/6
f 122/4/6 123/4/6 124/4/6
f 124/4/6 123/4/6 125/4/6
f 121/2/6 124/2/6 126/2/6
f 124/3/6 125/3/6 126/3/6
f 126/3/6 125/3/6 127/3/6
f 121/2/6 126/2/6 128/2/6
f 126/4/6 127/4/6 128/4/6
f 128/4/6 127/4/6 129/4/6
f 121/2/6 128/2/6 130/2/6
f 128/3/6 129/3/6 130/3/6
f 130/3/6 129/3/6 131/3/6
f 119/1/6 121/1/6 132/1/6
f 121/2/6 130/2/6 132/2/6
f 130/4/6 131/4/6 133/4/6
f 132/2/6 130/2/6 133/2/6
f 133/4/6 131/4/6 134/4/6
f 119/1/6 132/1/6 135/1/6
f 132/1/6 133/1/6 135/1/6
f 133/1/6 134/1/6 135/1/6
f 135/1/6 134/1/6 136/1/6
