# MagicaVoxel @ ephtracy

# material
mtllib tile-850.mtl
usemtl palette

# normals
vn -1 0 0
vn 1 0 0
vn 0 0 1
vn 0 0 -1
vn 0 -1 0
vn 0 1 0

# texcoords
vt 0.0253906 0.5
vt 0.0292969 0.5
vt 0.0644531 0.5
vt 0.0996094 0.5
vt 0.103516 0.5

# verts
v -8 2 7
v -8 2 6
v -8 3 7
v -8 3 6
v -8 5 7
v -8 5 6
v -8 6 7
v -8 6 6
v -8 8 7
v -8 8 6
v -8 9 7
v -8 9 6
v -8 11 7
v -8 11 6
v -8 12 7
v -8 12 6
v -8 13 7
v -8 13 6
v -8 14 7
v -8 14 6
v -7 3 7
v -7 3 6
v -7 5 7
v -7 5 6
v -7 6 7
v -7 6 6
v -7 8 7
v -7 8 6
v -7 9 7
v -7 9 6
v -7 11 7
v -7 11 6
v -4 3 7
v -4 3 6
v -4 5 7
v -4 5 6
v -4 6 7
v -4 6 6
v -4 8 7
v -4 8 6
v -4 9 7
v -4 9 6
v -4 11 7
v -4 11 6
v -1 2 7
v -1 2 6
v -1 5 7
v -1 5 6
v -1 6 7
v -1 6 6
v -1 8 7
v -1 8 6
v -1 9 7
v -1 9 6
v -1 11 7
v -1 11 6
v 0 14 7
v 0 14 6
v 0 15 7
v 0 15 6
v 2 3 7
v 2 3 6
v 2 6 7
v 2 6 6
v 2 7 7
v 2 7 6
v 2 9 7
v 2 9 6
v 2 10 7
v 2 10 6
v 2 12 7
v 2 12 6
v 5 0 7
v 5 0 6
v 5 11 7
v 5 11 6
v 5 12 7
v 5 12 6
v -6 3 7
v -6 3 6
v -6 5 7
v -6 5 6
v -6 6 7
v -6 6 6
v -6 8 7
v -6 8 6
v -6 9 7
v -6 9 6
v -6 11 7
v -6 11 6
v -5 2 7
v -5 2 6
v -5 3 7
v -5 3 6
v -3 3 7
v -3 3 6
v -3 5 7
v -3 5 6
v -3 6 7
v -3 6 6
v -3 8 7
v -3 8 6
v -3 9 7
v -3 9 6
v -3 11 7
v -3 11 6
v 0 2 7
v 0 2 6
v 0 6 7
v 0 6 6
v 0 7 7
v 0 7 6
v 0 9 7
v 0 9 6
v 0 10 7
v 0 10 6
v 0 12 7
v 0 12 6
v 3 3 7
v 3 3 6
v 3 12 7
v 3 12 6
v 8 0 7
v 8 0 6
v 8 11 7
v 8 11 6
v 8 14 7
v 8 14 6
v 8 15 7
v 8 15 6
v -8 2 7
v -8 3 7
v -8 5 7
v -8 6 7
v -8 8 7
v -8 9 7
v -8 11 7
v -8 12 7
v -8 13 7
v -8 14 7
v -7 3 7
v -7 5 7
v -7 6 7
v -7 8 7
v -7 9 7
v -7 11 7
v -6 3 7
v -6 5 7
v -6 6 7
v -6 8 7
v -6 9 7
v -6 11 7
v -5 2 7
v -5 3 7
v -4 3 7
v -4 5 7
v -4 6 7
v -4 8 7
v -4 9 7
v -4 11 7
v -3 3 7
v -3 5 7
v -3 6 7
v -3 8 7
v -3 9 7
v -3 11 7
v -1 2 7
v -1 5 7
v -1 6 7
v -1 8 7
v -1 9 7
v -1 11 7
v 0 2 7
v 0 6 7
v 0 7 7
v 0 9 7
v 0 10 7
v 0 12 7
v 0 13 7
v 0 14 7
v 0 15 7
v 2 3 7
v 2 6 7
v 2 7 7
v 2 9 7
v 2 10 7
v 2 12 7
v 3 3 7
v 3 12 7
v 5 0 7
v 5 11 7
v 5 12 7
v 5 13 7
v 5 14 7
v 5 15 7
v 6 0 7
v 6 11 7
v 6 12 7
v 6 13 7
v 6 14 7
v 7 0 7
v 7 11 7
v 7 12 7
v 7 13 7
v 7 14 7
v 8 0 7
v 8 11 7
v 8 14 7
v 8 15 7
v -8 2 6
v -8 3 6
v -8 5 6
v -8 6 6
v -8 8 6
v -8 9 6
v -8 11 6
v -8 12 6
v -8 13 6
v -8 14 6
v -7 3 6
v -7 5 6
v -7 6 6
v -7 8 6
v -7 9 6
v -7 11 6
v -6 3 6
v -6 5 6
v -6 6 6
v -6 8 6
v -6 9 6
v -6 11 6
v -5 2 6
v -5 3 6
v -4 3 6
v -4 5 6
v -4 6 6
v -4 8 6
v -4 9 6
v -4 11 6
v -3 3 6
v -3 5 6
v -3 6 6
v -3 8 6
v -3 9 6
v -3 11 6
v -1 2 6
v -1 5 6
v -1 6 6
v -1 8 6
v -1 9 6
v -1 11 6
v 0 2 6
v 0 6 6
v 0 7 6
v 0 9 6
v 0 10 6
v 0 12 6
v 0 13 6
v 0 14 6
v 0 15 6
v 2 3 6
v 2 6 6
v 2 7 6
v 2 9 6
v 2 10 6
v 2 12 6
v 3 3 6
v 3 12 6
v 5 0 6
v 5 11 6
v 5 12 6
v 5 13 6
v 5 14 6
v 5 15 6
v 6 0 6
v 6 11 6
v 6 12 6
v 6 13 6
v 6 14 6
v 7 0 6
v 7 11 6
v 7 12 6
v 7 13 6
v 7 14 6
v 8 0 6
v 8 11 6
v 8 14 6
v 8 15 6
v 5 0 7
v 6 0 7
v 7 0 7
v 8 0 7
v 5 0 6
v 6 0 6
v 7 0 6
v 8 0 6
v -8 2 7
v -5 2 7
v -1 2 7
v 0 2 7
v -8 2 6
v -5 2 6
v -1 2 6
v 0 2 6
v -4 3 7
v -3 3 7
v 2 3 7
v 3 3 7
v -4 3 6
v -3 3 6
v 2 3 6
v 3 3 6
v -8 5 7
v -7 5 7
v -6 5 7
v -4 5 7
v -3 5 7
v -1 5 7
v -8 5 6
v -7 5 6
v -6 5 6
v -4 5 6
v -3 5 6
v -1 5 6
v 0 6 7
v 2 6 7
v 0 6 6
v 2 6 6
v -8 8 7
v -7 8 7
v -6 8 7
v -4 8 7
v -3 8 7
v -1 8 7
v -8 8 6
v -7 8 6
v -6 8 6
v -4 8 6
v -3 8 6
v -1 8 6
v 0 9 7
v 2 9 7
v 0 9 6
v 2 9 6
v -8 11 7
v -7 11 7
v -6 11 7
v -4 11 7
v -3 11 7
v -1 11 7
v -8 11 6
v -7 11 6
v -6 11 6
v -4 11 6
v -3 11 6
v -1 11 6
v 0 12 7
v 2 12 7
v 3 12 7
v 5 12 7
v 0 12 6
v 2 12 6
v 3 12 6
v 5 12 6
v -8 3 7
v -7 3 7
v -6 3 7
v -5 3 7
v -8 3 6
v -7 3 6
v -6 3 6
v -5 3 6
v -8 6 7
v -7 6 7
v -6 6 7
v -4 6 7
v -3 6 7
v -1 6 7
v -8 6 6
v -7 6 6
v -6 6 6
v -4 6 6
v -3 6 6
v -1 6 6
v 0 7 7
v 2 7 7
v 0 7 6
v 2 7 6
v -8 9 7
v -7 9 7
v -6 9 7
v -4 9 7
v -3 9 7
v -1 9 7
v -8 9 6
v -7 9 6
v -6 9 6
v -4 9 6
v -3 9 6
v -1 9 6
v 0 10 7
v 2 10 7
v 0 10 6
v 2 10 6
v -8 14 7
v 0 14 7
v -8 14 6
v 0 14 6
v 0 15 7
v 5 15 7
v 8 15 7
v 0 15 6
v 5 15 6
v 8 15 6

# faces
f 3/4/1 2/4/1 1/4/1
f 4/4/1 2/4/1 3/4/1
f 7/4/1 6/4/1 5/4/1
f 8/4/1 6/4/1 7/4/1
f 11/4/1 10/4/1 9/4/1
f 12/4/1 10/4/1 11/4/1
f 15/4/1 14/4/1 13/4/1
f 16/4/1 14/4/1 15/4/1
f 17/3/1 16/3/1 15/3/1
f 18/3/1 16/3/1 17/3/1
f 19/4/1 18/4/1 17/4/1
f 20/4/1 18/4/1 19/4/1
f 23/4/1 22/4/1 21/4/1
f 24/4/1 22/4/1 23/4/1
f 27/4/1 26/4/1 25/4/1
f 28/4/1 26/4/1 27/4/1
f 31/4/1 30/4/1 29/4/1
f 32/4/1 30/4/1 31/4/1
f 35/4/1 34/4/1 33/4/1
f 36/4/1 34/4/1 35/4/1
f 39/4/1 38/4/1 37/4/1
f 40/4/1 38/4/1 39/4/1
f 43/4/1 42/4/1 41/4/1
f 44/4/1 42/4/1 43/4/1
f 47/4/1 46/4/1 45/4/1
f 48/4/1 46/4/1 47/4/1
f 51/4/1 50/4/1 49/4/1
f 52/4/1 50/4/1 51/4/1
f 55/4/1 54/4/1 53/4/1
f 56/4/1 54/4/1 55/4/1
f 59/4/1 58/4/1 57/4/1
f 60/4/1 58/4/1 59/4/1
f 63/4/1 62/4/1 61/4/1
f 64/4/1 62/4/1 63/4/1
f 67/4/1 66/4/1 65/4/1
f 68/4/1 66/4/1 67/4/1
f 71/4/1 70/4/1 69/4/1
f 72/4/1 70/4/1 71/4/1
f 75/1/1 74/1/1 73/1/1
f 76/1/1 74/1/1 75/1/1
f 77/4/1 76/4/1 75/4/1
f 78/4/1 76/4/1 77/4/1
f 79/4/2 80/4/2 81/4/2
f 81/4/2 80/4/2 82/4/2
f 83/4/2 84/4/2 85/4/2
f 85/4/2 84/4/2 86/4/2
f 87/4/2 88/4/2 89/4/2
f 89/4/2 88/4/2 90/4/2
f 91/4/2 92/4/2 93/4/2
f 93/4/2 92/4/2 94/4/2
f 95/4/2 96/4/2 97/4/2
f 97/4/2 96/4/2 98/4/2
f 99/4/2 100/4/2 101/4/2
f 101/4/2 100/4/2 102/4/2
f 103/4/2 104/4/2 105/4/2
f 105/4/2 104/4/2 106/4/2
f 107/4/2 108/4/2 109/4/2
f 109/4/2 108/4/2 110/4/2
f 111/4/2 112/4/2 113/4/2
f 113/4/2 112/4/2 114/4/2
f 115/4/2 116/4/2 117/4/2
f 117/4/2 116/4/2 118/4/2
f 119/4/2 120/4/2 121/4/2
f 121/4/2 120/4/2 122/4/2
f 123/1/2 124/1/2 125/1/2
f 125/1/2 124/1/2 126/1/2
f 125/4/2 126/4/2 127/4/2
f 127/4/2 126/4/2 128/4/2
f 127/1/2 128/1/2 129/1/2
f 129/1/2 128/1/2 130/1/2
f 141/4/3 132/4/3 131/4/3
f 142/4/3 134/4/3 133/4/3
f 143/4/3 134/4/3 142/4/3
f 144/4/3 136/4/3 135/4/3
f 145/4/3 136/4/3 144/4/3
f 146/4/3 138/4/3 137/4/3
f 147/4/3 141/4/3 131/4/3
f 147/4/3 146/4/3 145/4/3
f 147/4/3 143/4/3 142/4/3
f 147/4/3 145/4/3 144/4/3
f 147/4/3 144/4/3 143/4/3
f 147/4/3 142/4/3 141/4/3
f 148/4/3 146/4/3 147/4/3
f 149/4/3 146/4/3 148/4/3
f 150/4/3 146/4/3 149/4/3
f 151/4/3 146/4/3 150/4/3
f 152/4/3 138/4/3 146/4/3
f 152/4/3 146/4/3 151/4/3
f 153/4/3 147/4/3 131/4/3
f 154/4/3 147/4/3 153/4/3
f 156/4/3 149/4/3 148/4/3
f 157/4/3 149/4/3 156/4/3
f 158/4/3 151/4/3 150/4/3
f 159/4/3 151/4/3 158/4/3
f 160/4/3 138/4/3 152/4/3
f 161/4/3 157/4/3 156/4/3
f 161/4/3 160/4/3 159/4/3
f 161/4/3 159/4/3 158/4/3
f 161/4/3 156/4/3 155/4/3
f 161/4/3 158/4/3 157/4/3
f 162/4/3 160/4/3 161/4/3
f 163/4/3 160/4/3 162/4/3
f 164/4/3 160/4/3 163/4/3
f 165/4/3 160/4/3 164/4/3
f 166/4/3 138/4/3 160/4/3
f 166/4/3 160/4/3 165/4/3
f 168/4/3 163/4/3 162/4/3
f 169/4/3 163/4/3 168/4/3
f 170/4/3 165/4/3 164/4/3
f 171/4/3 165/4/3 170/4/3
f 172/4/3 138/4/3 166/4/3
f 173/4/3 169/4/3 168/4/3
f 173/4/3 172/4/3 171/4/3
f 173/4/3 171/4/3 170/4/3
f 173/4/3 168/4/3 167/4/3
f 173/4/3 170/4/3 169/4/3
f 174/4/3 172/4/3 173/4/3
f 175/4/3 172/4/3 174/4/3
f 176/4/3 172/4/3 175/4/3
f 177/4/3 172/4/3 176/4/3
f 178/4/3 138/4/3 172/4/3
f 178/4/3 172/4/3 177/4/3
f 178/3/3 139/3/3 138/3/3
f 179/4/3 140/4/3 139/4/3
f 179/3/3 139/3/3 178/3/3
f 180/4/3 140/4/3 179/4/3
f 183/4/3 175/4/3 174/4/3
f 184/4/3 175/4/3 183/4/3
f 185/4/3 177/4/3 176/4/3
f 186/4/3 177/4/3 185/4/3
f 187/4/3 179/4/3 178/4/3
f 188/4/3 184/4/3 183/4/3
f 188/4/3 187/4/3 186/4/3
f 188/4/3 186/4/3 185/4/3
f 188/4/3 183/4/3 182/4/3
f 188/4/3 185/4/3 184/4/3
f 189/4/3 179/4/3 187/4/3
f 189/4/3 187/4/3 188/4/3
f 192/4/3 179/4/3 189/4/3
f 193/3/3 180/3/3 179/3/3
f 193/4/3 179/4/3 192/4/3
f 194/4/3 181/4/3 180/4/3
f 194/3/3 180/3/3 193/3/3
f 195/4/3 181/4/3 194/4/3
f 196/1/3 191/1/3 190/1/3
f 197/4/3 193/4/3 192/4/3
f 197/1/3 191/1/3 196/1/3
f 197/4/3 192/4/3 191/4/3
f 197/4/3 194/4/3 193/4/3
f 198/4/3 194/4/3 197/4/3
f 199/4/3 194/4/3 198/4/3
f 200/1/3 195/1/3 194/1/3
f 200/4/3 194/4/3 199/4/3
f 201/2/3 197/2/3 196/2/3
f 202/5/3 198/5/3 197/5/3
f 202/2/3 197/2/3 201/2/3
f 203/3/3 199/3/3 198/3/3
f 203/5/3 198/5/3 202/5/3
f 204/5/3 200/5/3 199/5/3
f 204/3/3 199/3/3 203/3/3
f 205/1/3 195/1/3 200/1/3
f 205/5/3 200/5/3 204/5/3
f 206/1/3 202/1/3 201/1/3
f 207/4/3 204/4/3 203/4/3
f 207/1/3 202/1/3 206/1/3
f 207/4/3 203/4/3 202/4/3
f 207/4/3 205/4/3 204/4/3
f 208/1/3 195/1/3 205/1/3
f 208/4/3 205/4/3 207/4/3
f 209/1/3 195/1/3 208/1/3
f 210/4/4 211/4/4 220/4/4
f 212/4/4 213/4/4 221/4/4
f 221/4/4 213/4/4 222/4/4
f 214/4/4 215/4/4 223/4/4
f 223/4/4 215/4/4 224/4/4
f 216/4/4 217/4/4 225/4/4
f 210/4/4 220/4/4 226/4/4
f 224/4/4 225/4/4 226/4/4
f 221/4/4 222/4/4 226/4/4
f 223/4/4 224/4/4 226/4/4
f 222/4/4 223/4/4 226/4/4
f 220/4/4 221/4/4 226/4/4
f 226/4/4 225/4/4 227/4/4
f 227/4/4 225/4/4 228/4/4
f 228/4/4 225/4/4 229/4/4
f 229/4/4 225/4/4 230/4/4
f 225/4/4 217/4/4 231/4/4
f 230/4/4 225/4/4 231/4/4
f 210/4/4 226/4/4 232/4/4
f 232/4/4 226/4/4 233/4/4
f 227/4/4 228/4/4 235/4/4
f 235/4/4 228/4/4 236/4/4
f 229/4/4 230/4/4 237/4/4
f 237/4/4 230/4/4 238/4/4
f 231/4/4 217/4/4 239/4/4
f 235/4/4 236/4/4 240/4/4
f 238/4/4 239/4/4 240/4/4
f 237/4/4 238/4/4 240/4/4
f 234/4/4 235/4/4 240/4/4
f 236/4/4 237/4/4 240/4/4
f 240/4/4 239/4/4 241/4/4
f 241/4/4 239/4/4 242/4/4
f 242/4/4 239/4/4 243/4/4
f 243/4/4 239/4/4 244/4/4
f 239/4/4 217/4/4 245/4/4
f 244/4/4 239/4/4 245/4/4
f 241/4/4 242/4/4 247/4/4
f 247/4/4 242/4/4 248/4/4
f 243/4/4 244/4/4 249/4/4
f 249/4/4 244/4/4 250/4/4
f 245/4/4 217/4/4 251/4/4
f 247/4/4 248/4/4 252/4/4
f 250/4/4 251/4/4 252/4/4
f 249/4/4 250/4/4 252/4/4
f 246/4/4 247/4/4 252/4/4
f 248/4/4 249/4/4 252/4/4
f 252/4/4 251/4/4 253/4/4
f 253/4/4 251/4/4 254/4/4
f 254/4/4 251/4/4 255/4/4
f 255/4/4 251/4/4 256/4/4
f 251/4/4 217/4/4 257/4/4
f 256/4/4 251/4/4 257/4/4
f 217/3/4 218/3/4 257/3/4
f 218/4/4 219/4/4 258/4/4
f 257/3/4 218/3/4 258/3/4
f 258/4/4 219/4/4 259/4/4
f 253/4/4 254/4/4 262/4/4
f 262/4/4 254/4/4 263/4/4
f 255/4/4 256/4/4 264/4/4
f 264/4/4 256/4/4 265/4/4
f 257/4/4 258/4/4 266/4/4
f 262/4/4 263/4/4 267/4/4
f 265/4/4 266/4/4 267/4/4
f 264/4/4 265/4/4 267/4/4
f 261/4/4 262/4/4 267/4/4
f 263/4/4 264/4/4 267/4/4
f 266/4/4 258/4/4 268/4/4
f 267/4/4 266/4/4 268/4/4
f 268/4/4 258/4/4 271/4/4
f 258/3/4 259/3/4 272/3/4
f 271/4/4 258/4/4 272/4/4
f 259/4/4 260/4/4 273/4/4
f 272/3/4 259/3/4 273/3/4
f 273/4/4 260/4/4 274/4/4
f 269/1/4 270/1/4 275/1/4
f 271/4/4 272/4/4 276/4/4
f 275/1/4 270/1/4 276/1/4
f 270/4/4 271/4/4 276/4/4
f 272/4/4 273/4/4 276/4/4
f 276/4/4 273/4/4 277/4/4
f 277/4/4 273/4/4 278/4/4
f 273/1/4 274/1/4 279/1/4
f 278/4/4 273/4/4 279/4/4
f 275/2/4 276/2/4 280/2/4
f 276/5/4 277/5/4 281/5/4
f 280/2/4 276/2/4 281/2/4
f 277/3/4 278/3/4 282/3/4
f 281/5/4 277/5/4 282/5/4
f 278/5/4 279/5/4 283/5/4
f 282/3/4 278/3/4 283/3/4
f 279/1/4 274/1/4 284/1/4
f 283/5/4 279/5/4 284/5/4
f 280/1/4 281/1/4 285/1/4
f 282/4/4 283/4/4 286/4/4
f 285/1/4 281/1/4 286/1/4
f 281/4/4 282/4/4 286/4/4
f 283/4/4 284/4/4 286/4/4
f 284/1/4 274/1/4 287/1/4
f 286/4/4 284/4/4 287/4/4
f 287/1/4 274/1/4 288/1/4
f 293/1/5 290/1/5 289/1/5
f 294/2/5 291/2/5 290/2/5
f 294/1/5 290/1/5 293/1/5
f 295/1/5 292/1/5 291/1/5
f 295/2/5 291/2/5 294/2/5
f 296/1/5 292/1/5 295/1/5
f 301/4/5 298/4/5 297/4/5
f 302/4/5 298/4/5 301/4/5
f 303/4/5 300/4/5 299/4/5
f 304/4/5 300/4/5 303/4/5
f 309/4/5 306/4/5 305/4/5
f 310/4/5 306/4/5 309/4/5
f 311/4/5 308/4/5 307/4/5
f 312/4/5 308/4/5 311/4/5
f 319/4/5 314/4/5 313/4/5
f 320/4/5 314/4/5 319/4/5
f 321/4/5 316/4/5 315/4/5
f 322/4/5 316/4/5 321/4/5
f 323/4/5 318/4/5 317/4/5
f 324/4/5 318/4/5 323/4/5
f 327/4/5 326/4/5 325/4/5
f 328/4/5 326/4/5 327/4/5
f 335/4/5 330/4/5 329/4/5
f 336/4/5 330/4/5 335/4/5
f 337/4/5 332/4/5 331/4/5
f 338/4/5 332/4/5 337/4/5
f 339/4/5 334/4/5 333/4/5
f 340/4/5 334/4/5 339/4/5
f 343/4/5 342/4/5 341/4/5
f 344/4/5 342/4/5 343/4/5
f 351/4/5 346/4/5 345/4/5
f 352/4/5 346/4/5 351/4/5
f 353/4/5 348/4/5 347/4/5
f 354/4/5 348/4/5 353/4/5
f 355/4/5 350/4/5 349/4/5
f 356/4/5 350/4/5 355/4/5
f 361/4/5 358/4/5 357/4/5
f 362/4/5 358/4/5 361/4/5
f 363/4/5 360/4/5 359/4/5
f 364/4/5 360/4/5 363/4/5
f 365/4/6 366/4/6 369/4/6
f 369/4/6 366/4/6 370/4/6
f 367/4/6 368/4/6 371/4/6
f 371/4/6 368/4/6 372/4/6
f 373/4/6 374/4/6 379/4/6
f 379/4/6 374/4/6 380/4/6
f 375/4/6 376/4/6 381/4/6
f 381/4/6 376/4/6 382/4/6
f 377/4/6 378/4/6 383/4/6
f 383/4/6 378/4/6 384/4/6
f 385/4/6 386/4/6 387/4/6
f 387/4/6 386/4/6 388/4/6
f 389/4/6 390/4/6 395/4/6
f 395/4/6 390/4/6 396/4/6
f 391/4/6 392/4/6 397/4/6
f 397/4/6 392/4/6 398/4/6
f 393/4/6 394/4/6 399/4/6
f 399/4/6 394/4/6 400/4/6
f 401/4/6 402/4/6 403/4/6
f 403/4/6 402/4/6 404/4/6
f 405/4/6 406/4/6 407/4/6
f 407/4/6 406/4/6 408/4/6
f 409/4/6 410/4/6 412/4/6
f 410/1/6 411/1/6 413/1/6
f 412/4/6 410/4/6 413/4/6
f 413/1/6 411/1/6 414/1/6
