# MagicaVoxel @ ephtracy

# material
mtllib tile-849.mtl
usemtl palette

# normals
vn -1 0 0
vn 1 0 0
vn 0 0 1
vn 0 0 -1
vn 0 -1 0
vn 0 1 0

# texcoords
vt 0.0253906 0.5
vt 0.0292969 0.5
vt 0.0644531 0.5
vt 0.0996094 0.5
vt 0.103516 0.5

# verts
v -8 0 7
v -8 0 6
v -8 11 7
v -8 11 6
v -8 14 7
v -8 14 6
v -8 15 7
v -8 15 6
v -3 2 7
v -3 2 6
v -3 12 7
v -3 12 6
v 0 2 7
v 0 2 6
v 0 3 7
v 0 3 6
v 0 4 7
v 0 4 6
v 0 6 7
v 0 6 6
v 0 7 7
v 0 7 6
v 0 9 7
v 0 9 6
v 0 10 7
v 0 10 6
v 0 12 7
v 0 12 6
v 3 1 7
v 3 1 6
v 3 2 7
v 3 2 6
v 3 3 7
v 3 3 6
v 3 5 7
v 3 5 6
v 3 6 7
v 3 6 6
v 3 8 7
v 3 8 6
v 3 9 7
v 3 9 6
v 3 11 7
v 3 11 6
v 6 3 7
v 6 3 6
v 6 5 7
v 6 5 6
v 6 6 7
v 6 6 6
v 6 8 7
v 6 8 6
v 6 9 7
v 6 9 6
v 6 11 7
v 6 11 6
v -5 0 7
v -5 0 6
v -5 11 7
v -5 11 6
v -5 12 7
v -5 12 6
v -2 2 7
v -2 2 6
v -2 3 7
v -2 3 6
v -2 4 7
v -2 4 6
v -2 6 7
v -2 6 6
v -2 7 7
v -2 7 6
v -2 9 7
v -2 9 6
v -2 10 7
v -2 10 6
v -2 12 7
v -2 12 6
v 0 14 7
v 0 14 6
v 0 15 7
v 0 15 6
v 1 3 7
v 1 3 6
v 1 5 7
v 1 5 6
v 1 6 7
v 1 6 6
v 1 8 7
v 1 8 6
v 1 9 7
v 1 9 6
v 1 11 7
v 1 11 6
v 4 1 7
v 4 1 6
v 4 2 7
v 4 2 6
v 4 3 7
v 4 3 6
v 4 5 7
v 4 5 6
v 4 6 7
v 4 6 6
v 4 8 7
v 4 8 6
v 4 9 7
v 4 9 6
v 4 11 7
v 4 11 6
v 7 3 7
v 7 3 6
v 7 5 7
v 7 5 6
v 7 6 7
v 7 6 6
v 7 8 7
v 7 8 6
v 7 9 7
v 7 9 6
v 7 11 7
v 7 11 6
v 8 2 7
v 8 2 6
v 8 3 7
v 8 3 6
v 8 5 7
v 8 5 6
v 8 6 7
v 8 6 6
v 8 8 7
v 8 8 6
v 8 9 7
v 8 9 6
v 8 11 7
v 8 11 6
v 8 12 7
v 8 12 6
v 8 13 7
v 8 13 6
v 8 14 7
v 8 14 6
v -8 0 7
v -8 11 7
v -8 14 7
v -8 15 7
v -7 0 7
v -7 11 7
v -7 12 7
v -7 13 7
v -7 14 7
v -6 0 7
v -6 11 7
v -6 12 7
v -6 13 7
v -6 14 7
v -5 0 7
v -5 11 7
v -5 12 7
v -5 13 7
v -5 14 7
v -5 15 7
v -3 2 7
v -3 12 7
v -2 2 7
v -2 3 7
v -2 4 7
v -2 6 7
v -2 7 7
v -2 9 7
v -2 10 7
v -2 12 7
v 0 2 7
v 0 3 7
v 0 4 7
v 0 6 7
v 0 7 7
v 0 9 7
v 0 10 7
v 0 12 7
v 0 13 7
v 0 14 7
v 0 15 7
v 1 3 7
v 1 5 7
v 1 6 7
v 1 8 7
v 1 9 7
v 1 11 7
v 3 1 7
v 3 2 7
v 3 3 7
v 3 5 7
v 3 6 7
v 3 8 7
v 3 9 7
v 3 11 7
v 4 1 7
v 4 2 7
v 4 3 7
v 4 5 7
v 4 6 7
v 4 8 7
v 4 9 7
v 4 11 7
v 6 3 7
v 6 5 7
v 6 6 7
v 6 8 7
v 6 9 7
v 6 11 7
v 7 3 7
v 7 5 7
v 7 6 7
v 7 8 7
v 7 9 7
v 7 11 7
v 8 2 7
v 8 3 7
v 8 5 7
v 8 6 7
v 8 8 7
v 8 9 7
v 8 11 7
v 8 12 7
v 8 13 7
v 8 14 7
v -8 0 6
v -8 11 6
v -8 14 6
v -8 15 6
v -7 0 6
v -7 11 6
v -7 12 6
v -7 13 6
v -7 14 6
v -6 0 6
v -6 11 6
v -6 12 6
v -6 13 6
v -6 14 6
v -5 0 6
v -5 11 6
v -5 12 6
v -5 13 6
v -5 14 6
v -5 15 6
v -3 2 6
v -3 12 6
v -2 2 6
v -2 3 6
v -2 4 6
v -2 6 6
v -2 7 6
v -2 9 6
v -2 10 6
v -2 12 6
v 0 2 6
v 0 3 6
v 0 4 6
v 0 6 6
v 0 7 6
v 0 9 6
v 0 10 6
v 0 12 6
v 0 13 6
v 0 14 6
v 0 15 6
v 1 3 6
v 1 5 6
v 1 6 6
v 1 8 6
v 1 9 6
v 1 11 6
v 3 1 6
v 3 2 6
v 3 3 6
v 3 5 6
v 3 6 6
v 3 8 6
v 3 9 6
v 3 11 6
v 4 1 6
v 4 2 6
v 4 3 6
v 4 5 6
v 4 6 6
v 4 8 6
v 4 9 6
v 4 11 6
v 6 3 6
v 6 5 6
v 6 6 6
v 6 8 6
v 6 9 6
v 6 11 6
v 7 3 6
v 7 5 6
v 7 6 6
v 7 8 6
v 7 9 6
v 7 11 6
v 8 2 6
v 8 3 6
v 8 5 6
v 8 6 6
v 8 8 6
v 8 9 6
v 8 11 6
v 8 12 6
v 8 13 6
v 8 14 6
v -8 0 7
v -7 0 7
v -6 0 7
v -5 0 7
v -8 0 6
v -7 0 6
v -6 0 6
v -5 0 6
v 3 1 7
v 4 1 7
v 3 1 6
v 4 1 6
v -3 2 7
v -2 2 7
v 0 2 7
v 3 2 7
v 4 2 7
v 8 2 7
v -3 2 6
v -2 2 6
v 0 2 6
v 3 2 6
v 4 2 6
v 8 2 6
v -2 3 7
v 0 3 7
v -2 3 6
v 0 3 6
v 1 5 7
v 3 5 7
v 4 5 7
v 6 5 7
v 7 5 7
v 8 5 7
v 1 5 6
v 3 5 6
v 4 5 6
v 6 5 6
v 7 5 6
v 8 5 6
v -2 6 7
v 0 6 7
v -2 6 6
v 0 6 6
v 1 8 7
v 3 8 7
v 4 8 7
v 6 8 7
v 7 8 7
v 8 8 7
v 1 8 6
v 3 8 6
v 4 8 6
v 6 8 6
v 7 8 6
v 8 8 6
v -2 9 7
v 0 9 7
v -2 9 6
v 0 9 6
v 1 11 7
v 3 11 7
v 4 11 7
v 6 11 7
v 7 11 7
v 8 11 7
v 1 11 6
v 3 11 6
v 4 11 6
v 6 11 6
v 7 11 6
v 8 11 6
v -5 12 7
v -3 12 7
v -2 12 7
v 0 12 7
v -5 12 6
v -3 12 6
v -2 12 6
v 0 12 6
v 1 3 7
v 3 3 7
v 4 3 7
v 6 3 7
v 7 3 7
v 8 3 7
v 1 3 6
v 3 3 6
v 4 3 6
v 6 3 6
v 7 3 6
v 8 3 6
v -2 4 7
v 0 4 7
v -2 4 6
v 0 4 6
v 1 6 7
v 3 6 7
v 4 6 7
v 6 6 7
v 7 6 7
v 8 6 7
v 1 6 6
v 3 6 6
v 4 6 6
v 6 6 6
v 7 6 6
v 8 6 6
v -2 7 7
v 0 7 7
v -2 7 6
v 0 7 6
v 1 9 7
v 3 9 7
v 4 9 7
v 6 9 7
v 7 9 7
v 8 9 7
v 1 9 6
v 3 9 6
v 4 9 6
v 6 9 6
v 7 9 6
v 8 9 6
v -2 10 7
v 0 10 7
v -2 10 6
v 0 10 6
v 0 14 7
v 8 14 7
v 0 14 6
v 8 14 6
v -8 15 7
v -5 15 7
v 0 15 7
v -8 15 6
v -5 15 6
v 0 15 6

# faces
f 3/1/1 2/1/1 1/1/1
f 4/1/1 2/1/1 3/1/1
f 5/4/1 4/4/1 3/4/1
f 6/4/1 4/4/1 5/4/1
f 7/1/1 6/1/1 5/1/1
f 8/1/1 6/1/1 7/1/1
f 11/4/1 10/4/1 9/4/1
f 12/4/1 10/4/1 11/4/1
f 15/4/1 14/4/1 13/4/1
f 16/4/1 14/4/1 15/4/1
f 19/4/1 18/4/1 17/4/1
f 20/4/1 18/4/1 19/4/1
f 23/4/1 22/4/1 21/4/1
f 24/4/1 22/4/1 23/4/1
f 27/4/1 26/4/1 25/4/1
f 28/4/1 26/4/1 27/4/1
f 31/4/1 30/4/1 29/4/1
f 32/4/1 30/4/1 31/4/1
f 35/4/1 34/4/1 33/4/1
f 36/4/1 34/4/1 35/4/1
f 39/4/1 38/4/1 37/4/1
f 40/4/1 38/4/1 39/4/1
f 43/4/1 42/4/1 41/4/1
f 44/4/1 42/4/1 43/4/1
f 47/4/1 46/4/1 45/4/1
f 48/4/1 46/4/1 47/4/1
f 51/4/1 50/4/1 49/4/1
f 52/4/1 50/4/1 51/4/1
f 55/4/1 54/4/1 53/4/1
f 56/4/1 54/4/1 55/4/1
f 57/1/2 58/1/2 59/1/2
f 59/1/2 58/1/2 60/1/2
f 59/4/2 60/4/2 61/4/2
f 61/4/2 60/4/2 62/4/2
f 63/4/2 64/4/2 65/4/2
f 65/4/2 64/4/2 66/4/2
f 67/4/2 68/4/2 69/4/2
f 69/4/2 68/4/2 70/4/2
f 71/4/2 72/4/2 73/4/2
f 73/4/2 72/4/2 74/4/2
f 75/4/2 76/4/2 77/4/2
f 77/4/2 76/4/2 78/4/2
f 79/4/2 80/4/2 81/4/2
f 81/4/2 80/4/2 82/4/2
f 83/4/2 84/4/2 85/4/2
f 85/4/2 84/4/2 86/4/2
f 87/4/2 88/4/2 89/4/2
f 89/4/2 88/4/2 90/4/2
f 91/4/2 92/4/2 93/4/2
f 93/4/2 92/4/2 94/4/2
f 95/4/2 96/4/2 97/4/2
f 97/4/2 96/4/2 98/4/2
f 99/4/2 100/4/2 101/4/2
f 101/4/2 100/4/2 102/4/2
f 103/4/2 104/4/2 105/4/2
f 105/4/2 104/4/2 106/4/2
f 107/4/2 108/4/2 109/4/2
f 109/4/2 108/4/2 110/4/2
f 111/4/2 112/4/2 113/4/2
f 113/4/2 112/4/2 114/4/2
f 115/4/2 116/4/2 117/4/2
f 117/4/2 116/4/2 118/4/2
f 119/4/2 120/4/2 121/4/2
f 121/4/2 120/4/2 122/4/2
f 123/4/2 124/4/2 125/4/2
f 125/4/2 124/4/2 126/4/2
f 127/4/2 128/4/2 129/4/2
f 129/4/2 128/4/2 130/4/2
f 131/4/2 132/4/2 133/4/2
f 133/4/2 132/4/2 134/4/2
f 135/4/2 136/4/2 137/4/2
f 137/4/2 136/4/2 138/4/2
f 137/3/2 138/3/2 139/3/2
f 139/3/2 138/3/2 140/3/2
f 139/4/2 140/4/2 141/4/2
f 141/4/2 140/4/2 142/4/2
f 147/1/3 144/1/3 143/1/3
f 148/4/3 145/4/3 144/4/3
f 148/1/3 144/1/3 147/1/3
f 149/4/3 145/4/3 148/4/3
f 150/4/3 145/4/3 149/4/3
f 151/1/3 146/1/3 145/1/3
f 151/4/3 145/4/3 150/4/3
f 152/2/3 148/2/3 147/2/3
f 153/5/3 149/5/3 148/5/3
f 153/2/3 148/2/3 152/2/3
f 154/3/3 150/3/3 149/3/3
f 154/5/3 149/5/3 153/5/3
f 155/5/3 151/5/3 150/5/3
f 155/3/3 150/3/3 154/3/3
f 156/1/3 146/1/3 151/1/3
f 156/5/3 151/5/3 155/5/3
f 157/1/3 153/1/3 152/1/3
f 158/4/3 155/4/3 154/4/3
f 158/1/3 153/1/3 157/1/3
f 158/4/3 154/4/3 153/4/3
f 158/4/3 156/4/3 155/4/3
f 159/4/3 156/4/3 158/4/3
f 160/4/3 156/4/3 159/4/3
f 161/1/3 146/1/3 156/1/3
f 161/4/3 156/4/3 160/4/3
f 162/1/3 146/1/3 161/1/3
f 164/4/3 160/4/3 159/4/3
f 165/4/3 164/4/3 163/4/3
f 166/4/3 164/4/3 165/4/3
f 167/4/3 164/4/3 166/4/3
f 168/4/3 164/4/3 167/4/3
f 169/4/3 164/4/3 168/4/3
f 170/4/3 164/4/3 169/4/3
f 171/4/3 164/4/3 170/4/3
f 172/4/3 160/4/3 164/4/3
f 172/4/3 164/4/3 171/4/3
f 174/4/3 167/4/3 166/4/3
f 175/4/3 167/4/3 174/4/3
f 176/4/3 169/4/3 168/4/3
f 177/4/3 169/4/3 176/4/3
f 178/4/3 171/4/3 170/4/3
f 179/4/3 171/4/3 178/4/3
f 180/4/3 160/4/3 172/4/3
f 181/3/3 161/3/3 160/3/3
f 181/4/3 160/4/3 180/4/3
f 182/4/3 162/4/3 161/4/3
f 182/3/3 161/3/3 181/3/3
f 183/4/3 162/4/3 182/4/3
f 184/4/3 180/4/3 179/4/3
f 184/4/3 177/4/3 176/4/3
f 184/4/3 179/4/3 178/4/3
f 184/4/3 175/4/3 174/4/3
f 184/4/3 178/4/3 177/4/3
f 184/4/3 174/4/3 173/4/3
f 184/4/3 176/4/3 175/4/3
f 185/4/3 180/4/3 184/4/3
f 186/4/3 180/4/3 185/4/3
f 187/4/3 180/4/3 186/4/3
f 188/4/3 180/4/3 187/4/3
f 189/4/3 180/4/3 188/4/3
f 191/4/3 184/4/3 173/4/3
f 192/4/3 184/4/3 191/4/3
f 193/4/3 186/4/3 185/4/3
f 194/4/3 186/4/3 193/4/3
f 195/4/3 188/4/3 187/4/3
f 196/4/3 188/4/3 195/4/3
f 197/4/3 180/4/3 189/4/3
f 198/4/3 194/4/3 193/4/3
f 198/4/3 197/4/3 196/4/3
f 198/4/3 196/4/3 195/4/3
f 198/4/3 192/4/3 191/4/3
f 198/4/3 195/4/3 194/4/3
f 198/4/3 191/4/3 190/4/3
f 198/4/3 193/4/3 192/4/3
f 199/4/3 197/4/3 198/4/3
f 200/4/3 197/4/3 199/4/3
f 201/4/3 197/4/3 200/4/3
f 202/4/3 197/4/3 201/4/3
f 203/4/3 197/4/3 202/4/3
f 204/4/3 197/4/3 203/4/3
f 205/4/3 180/4/3 197/4/3
f 205/4/3 197/4/3 204/4/3
f 206/4/3 200/4/3 199/4/3
f 207/4/3 202/4/3 201/4/3
f 208/4/3 202/4/3 207/4/3
f 209/4/3 204/4/3 203/4/3
f 210/4/3 204/4/3 209/4/3
f 211/4/3 180/4/3 205/4/3
f 212/4/3 208/4/3 207/4/3
f 212/4/3 211/4/3 210/4/3
f 212/4/3 210/4/3 209/4/3
f 212/4/3 206/4/3 199/4/3
f 212/4/3 209/4/3 208/4/3
f 212/4/3 207/4/3 206/4/3
f 213/4/3 211/4/3 212/4/3
f 214/4/3 211/4/3 213/4/3
f 215/4/3 211/4/3 214/4/3
f 216/4/3 211/4/3 215/4/3
f 217/4/3 180/4/3 211/4/3
f 217/4/3 211/4/3 216/4/3
f 218/4/3 212/4/3 199/4/3
f 219/4/3 212/4/3 218/4/3
f 220/4/3 214/4/3 213/4/3
f 221/4/3 214/4/3 220/4/3
f 222/4/3 216/4/3 215/4/3
f 223/4/3 216/4/3 222/4/3
f 224/4/3 180/4/3 217/4/3
f 225/3/3 181/3/3 180/3/3
f 225/4/3 180/4/3 224/4/3
f 226/4/3 182/4/3 181/4/3
f 226/3/3 181/3/3 225/3/3
f 227/4/3 182/4/3 226/4/3
f 228/1/4 229/1/4 232/1/4
f 229/4/4 230/4/4 233/4/4
f 232/1/4 229/1/4 233/1/4
f 233/4/4 230/4/4 234/4/4
f 234/4/4 230/4/4 235/4/4
f 230/1/4 231/1/4 236/1/4
f 235/4/4 230/4/4 236/4/4
f 232/2/4 233/2/4 237/2/4
f 233/5/4 234/5/4 238/5/4
f 237/2/4 233/2/4 238/2/4
f 234/3/4 235/3/4 239/3/4
f 238/5/4 234/5/4 239/5/4
f 235/5/4 236/5/4 240/5/4
f 239/3/4 235/3/4 240/3/4
f 236/1/4 231/1/4 241/1/4
f 240/5/4 236/5/4 241/5/4
f 237/1/4 238/1/4 242/1/4
f 239/4/4 240/4/4 243/4/4
f 242/1/4 238/1/4 243/1/4
f 238/4/4 239/4/4 243/4/4
f 240/4/4 241/4/4 243/4/4
f 243/4/4 241/4/4 244/4/4
f 244/4/4 241/4/4 245/4/4
f 241/1/4 231/1/4 246/1/4
f 245/4/4 241/4/4 246/4/4
f 246/1/4 231/1/4 247/1/4
f 244/4/4 245/4/4 249/4/4
f 248/4/4 249/4/4 250/4/4
f 250/4/4 249/4/4 251/4/4
f 251/4/4 249/4/4 252/4/4
f 252/4/4 249/4/4 253/4/4
f 253/4/4 249/4/4 254/4/4
f 254/4/4 249/4/4 255/4/4
f 255/4/4 249/4/4 256/4/4
f 249/4/4 245/4/4 257/4/4
f 256/4/4 249/4/4 257/4/4
f 251/4/4 252/4/4 259/4/4
f 259/4/4 252/4/4 260/4/4
f 253/4/4 254/4/4 261/4/4
f 261/4/4 254/4/4 262/4/4
f 255/4/4 256/4/4 263/4/4
f 263/4/4 256/4/4 264/4/4
f 257/4/4 245/4/4 265/4/4
f 245/3/4 246/3/4 266/3/4
f 265/4/4 245/4/4 266/4/4
f 246/4/4 247/4/4 267/4/4
f 266/3/4 246/3/4 267/3/4
f 267/4/4 247/4/4 268/4/4
f 264/4/4 265/4/4 269/4/4
f 261/4/4 262/4/4 269/4/4
f 263/4/4 264/4/4 269/4/4
f 259/4/4 260/4/4 269/4/4
f 262/4/4 263/4/4 269/4/4
f 258/4/4 259/4/4 269/4/4
f 260/4/4 261/4/4 269/4/4
f 269/4/4 265/4/4 270/4/4
f 270/4/4 265/4/4 271/4/4
f 271/4/4 265/4/4 272/4/4
f 272/4/4 265/4/4 273/4/4
f 273/4/4 265/4/4 274/4/4
f 258/4/4 269/4/4 276/4/4
f 276/4/4 269/4/4 277/4/4
f 270/4/4 271/4/4 278/4/4
f 278/4/4 271/4/4 279/4/4
f 272/4/4 273/4/4 280/4/4
f 280/4/4 273/4/4 281/4/4
f 274/4/4 265/4/4 282/4/4
f 278/4/4 279/4/4 283/4/4
f 281/4/4 282/4/4 283/4/4
f 280/4/4 281/4/4 283/4/4
f 276/4/4 277/4/4 283/4/4
f 279/4/4 280/4/4 283/4/4
f 275/4/4 276/4/4 283/4/4
f 277/4/4 278/4/4 283/4/4
f 283/4/4 282/4/4 284/4/4
f 284/4/4 282/4/4 285/4/4
f 285/4/4 282/4/4 286/4/4
f 286/4/4 282/4/4 287/4/4
f 287/4/4 282/4/4 288/4/4
f 288/4/4 282/4/4 289/4/4
f 282/4/4 265/4/4 290/4/4
f 289/4/4 282/4/4 290/4/4
f 284/4/4 285/4/4 291/4/4
f 286/4/4 287/4/4 292/4/4
f 292/4/4 287/4/4 293/4/4
f 288/4/4 289/4/4 294/4/4
f 294/4/4 289/4/4 295/4/4
f 290/4/4 265/4/4 296/4/4
f 292/4/4 293/4/4 297/4/4
f 295/4/4 296/4/4 297/4/4
f 294/4/4 295/4/4 297/4/4
f 284/4/4 291/4/4 297/4/4
f 293/4/4 294/4/4 297/4/4
f 291/4/4 292/4/4 297/4/4
f 297/4/4 296/4/4 298/4/4
f 298/4/4 296/4/4 299/4/4
f 299/4/4 296/4/4 300/4/4
f 300/4/4 296/4/4 301/4/4
f 296/4/4 265/4/4 302/4/4
f 301/4/4 296/4/4 302/4/4
f 284/4/4 297/4/4 303/4/4
f 303/4/4 297/4/4 304/4/4
f 298/4/4 299/4/4 305/4/4
f 305/4/4 299/4/4 306/4/4
f 300/4/4 301/4/4 307/4/4
f 307/4/4 301/4/4 308/4/4
f 302/4/4 265/4/4 309/4/4
f 265/3/4 266/3/4 310/3/4
f 309/4/4 265/4/4 310/4/4
f 266/4/4 267/4/4 311/4/4
f 310/3/4 266/3/4 311/3/4
f 311/4/4 267/4/4 312/4/4
f 317/1/5 314/1/5 313/1/5
f 318/2/5 315/2/5 314/2/5
f 318/1/5 314/1/5 317/1/5
f 319/1/5 316/1/5 315/1/5
f 319/2/5 315/2/5 318/2/5
f 320/1/5 316/1/5 319/1/5
f 323/4/5 322/4/5 321/4/5
f 324/4/5 322/4/5 323/4/5
f 331/4/5 326/4/5 325/4/5
f 332/4/5 326/4/5 331/4/5
f 333/4/5 328/4/5 327/4/5
f 334/4/5 328/4/5 333/4/5
f 335/4/5 330/4/5 329/4/5
f 336/4/5 330/4/5 335/4/5
f 339/4/5 338/4/5 337/4/5
f 340/4/5 338/4/5 339/4/5
f 347/4/5 342/4/5 341/4/5
f 348/4/5 342/4/5 347/4/5
f 349/4/5 344/4/5 343/4/5
f 350/4/5 344/4/5 349/4/5
f 351/4/5 346/4/5 345/4/5
f 352/4/5 346/4/5 351/4/5
f 355/4/5 354/4/5 353/4/5
f 356/4/5 354/4/5 355/4/5
f 363/4/5 358/4/5 357/4/5
f 364/4/5 358/4/5 363/4/5
f 365/4/5 360/4/5 359/4/5
f 366/4/5 360/4/5 365/4/5
f 367/4/5 362/4/5 361/4/5
f 368/4/5 362/4/5 367/4/5
f 371/4/5 370/4/5 369/4/5
f 372/4/5 370/4/5 371/4/5
f 379/4/5 374/4/5 373/4/5
f 380/4/5 374/4/5 379/4/5
f 381/4/5 376/4/5 375/4/5
f 382/4/5 376/4/5 381/4/5
f 383/4/5 378/4/5 377/4/5
f 384/4/5 378/4/5 383/4/5
f 389/4/5 386/4/5 385/4/5
f 390/4/5 386/4/5 389/4/5
f 391/4/5 388/4/5 387/4/5
f 392/4/5 388/4/5 391/4/5
f 393/4/6 394/4/6 399/4/6
f 399/4/6 394/4/6 400/4/6
f 395/4/6 396/4/6 401/4/6
f 401/4/6 396/4/6 402/4/6
f 397/4/6 398/4/6 403/4/6
f 403/4/6 398/4/6 404/4/6
f 405/4/6 406/4/6 407/4/6
f 407/4/6 406/4/6 408/4/6
f 409/4/6 410/4/6 415/4/6
f 415/4/6 410/4/6 416/4/6
f 411/4/6 412/4/6 417/4/6
f 417/4/6 412/4/6 418/4/6
f 413/4/6 414/4/6 419/4/6
f 419/4/6 414/4/6 420/4/6
f 421/4/6 422/4/6 423/4/6
f 423/4/6 422/4/6 424/4/6
f 425/4/6 426/4/6 431/4/6
f 431/4/6 426/4/6 432/4/6
f 427/4/6 428/4/6 433/4/6
f 433/4/6 428/4/6 434/4/6
f 429/4/6 430/4/6 435/4/6
f 435/4/6 430/4/6 436/4/6
f 437/4/6 438/4/6 439/4/6
f 439/4/6 438/4/6 440/4/6
f 441/4/6 442/4/6 443/4/6
f 443/4/6 442/4/6 444/4/6
f 445/1/6 446/1/6 448/1/6
f 446/4/6 447/4/6 449/4/6
f 448/1/6 446/1/6 449/1/6
f 449/4/6 447/4/6 450/4/6
