# MagicaVoxel @ ephtracy

# material
mtllib tile-1361.mtl
usemtl palette

# normals
vn -1 0 0
vn 1 0 0
vn 0 0 1
vn 0 0 -1
vn 0 -1 0
vn 0 1 0

# texcoords
vt 0.0253906 0.5
vt 0.0292969 0.5
vt 0.0332031 0.5
vt 0.0371094 0.5

# verts
v 5 0 8
v 5 0 7
v 5 0 6
v 5 0 5
v 5 0 -5
v 5 0 -6
v 5 0 -7
v 5 0 -8
v 5 1 5
v 5 1 -5
v 5 2 6
v 5 2 5
v 5 2 -5
v 5 2 -6
v 5 3 6
v 5 3 5
v 5 3 -5
v 5 3 -6
v 5 4 6
v 5 4 5
v 5 4 -5
v 5 4 -6
v 5 5 5
v 5 5 -5
v 5 7 5
v 5 7 -5
v 5 8 6
v 5 8 5
v 5 8 -5
v 5 8 -6
v 5 9 6
v 5 9 5
v 5 9 -5
v 5 9 -6
v 5 10 6
v 5 10 5
v 5 10 -5
v 5 10 -6
v 5 11 5
v 5 11 -5
v 5 14 7
v 5 14 6
v 5 14 -6
v 5 14 -7
v 5 15 8
v 5 15 7
v 5 15 6
v 5 15 5
v 5 15 -5
v 5 15 -6
v 5 15 -7
v 5 15 -8
v 5 16 7
v 5 16 6
v 5 16 -6
v 5 16 -7
v 7 0 8
v 7 0 7
v 7 0 6
v 7 0 5
v 7 0 -5
v 7 0 -6
v 7 0 -7
v 7 0 -8
v 7 1 5
v 7 1 -5
v 7 2 6
v 7 2 5
v 7 2 -5
v 7 2 -6
v 7 3 6
v 7 3 5
v 7 3 -5
v 7 3 -6
v 7 4 6
v 7 4 5
v 7 4 -5
v 7 4 -6
v 7 5 5
v 7 5 -5
v 7 7 5
v 7 7 -5
v 7 8 6
v 7 8 5
v 7 8 -5
v 7 8 -6
v 7 9 6
v 7 9 5
v 7 9 -5
v 7 9 -6
v 7 10 6
v 7 10 5
v 7 10 -5
v 7 10 -6
v 7 11 5
v 7 11 -5
v 7 14 7
v 7 14 6
v 7 14 -6
v 7 14 -7
v 7 15 8
v 7 15 7
v 7 15 6
v 7 15 5
v 7 15 -5
v 7 15 -6
v 7 15 -7
v 7 15 -8
v 7 16 7
v 7 16 6
v 7 16 -6
v 7 16 -7
v 5 0 8
v 5 15 8
v 7 0 8
v 7 15 8
v 5 15 7
v 5 16 7
v 7 15 7
v 7 16 7
v 5 0 -5
v 5 1 -5
v 5 5 -5
v 5 7 -5
v 5 11 -5
v 5 15 -5
v 7 0 -5
v 7 1 -5
v 7 5 -5
v 7 7 -5
v 7 11 -5
v 7 15 -5
v 5 15 -6
v 5 16 -6
v 7 15 -6
v 7 16 -6
v 5 15 6
v 5 16 6
v 7 15 6
v 7 16 6
v 5 0 5
v 5 1 5
v 5 5 5
v 5 7 5
v 5 11 5
v 5 15 5
v 7 0 5
v 7 1 5
v 7 5 5
v 7 7 5
v 7 11 5
v 7 15 5
v 5 15 -7
v 5 16 -7
v 7 15 -7
v 7 16 -7
v 5 0 -8
v 5 15 -8
v 7 0 -8
v 7 15 -8
v 5 0 8
v 7 0 8
v 5 0 7
v 7 0 7
v 5 0 6
v 7 0 6
v 5 0 5
v 7 0 5
v 5 0 -5
v 7 0 -5
v 5 0 -6
v 7 0 -6
v 5 0 -7
v 7 0 -7
v 5 0 -8
v 7 0 -8
v 5 1 5
v 7 1 5
v 5 1 -5
v 7 1 -5
v 5 7 5
v 7 7 5
v 5 7 -5
v 7 7 -5
v 5 5 5
v 7 5 5
v 5 5 -5
v 7 5 -5
v 5 11 5
v 7 11 5
v 5 11 -5
v 7 11 -5
v 5 15 8
v 7 15 8
v 5 15 7
v 7 15 7
v 5 15 6
v 7 15 6
v 5 15 5
v 7 15 5
v 5 15 -5
v 7 15 -5
v 5 15 -6
v 7 15 -6
v 5 15 -7
v 7 15 -7
v 5 15 -8
v 7 15 -8
v 5 16 7
v 7 16 7
v 5 16 6
v 7 16 6
v 5 16 -6
v 7 16 -6
v 5 16 -7
v 7 16 -7

# faces
f 9/1/1 4/1/1 3/1/1
f 10/1/1 6/1/1 5/1/1
f 11/2/1 3/2/1 2/2/1
f 11/1/1 10/1/1 9/1/1
f 11/1/1 9/1/1 3/1/1
f 12/1/1 10/1/1 11/1/1
f 13/1/1 6/1/1 10/1/1
f 13/1/1 10/1/1 12/1/1
f 14/2/1 7/2/1 6/2/1
f 14/1/1 6/1/1 13/1/1
f 15/4/1 12/4/1 11/4/1
f 15/2/1 11/2/1 2/2/1
f 16/2/1 13/2/1 12/2/1
f 16/4/1 12/4/1 15/4/1
f 17/4/1 14/4/1 13/4/1
f 17/2/1 13/2/1 16/2/1
f 18/2/1 7/2/1 14/2/1
f 18/4/1 14/4/1 17/4/1
f 19/2/1 15/2/1 2/2/1
f 19/2/1 16/2/1 15/2/1
f 20/3/1 17/3/1 16/3/1
f 20/2/1 16/2/1 19/2/1
f 21/2/1 18/2/1 17/2/1
f 21/3/1 17/3/1 20/3/1
f 22/2/1 7/2/1 18/2/1
f 22/2/1 18/2/1 21/2/1
f 23/1/1 21/1/1 20/1/1
f 23/1/1 20/1/1 19/1/1
f 23/1/1 22/1/1 21/1/1
f 24/1/1 22/1/1 23/1/1
f 25/1/1 23/1/1 19/1/1
f 26/1/1 22/1/1 24/1/1
f 27/2/1 19/2/1 2/2/1
f 27/1/1 26/1/1 25/1/1
f 27/1/1 25/1/1 19/1/1
f 28/1/1 26/1/1 27/1/1
f 29/1/1 22/1/1 26/1/1
f 29/1/1 26/1/1 28/1/1
f 30/2/1 7/2/1 22/2/1
f 30/1/1 22/1/1 29/1/1
f 31/4/1 28/4/1 27/4/1
f 31/2/1 27/2/1 2/2/1
f 32/2/1 29/2/1 28/2/1
f 32/4/1 28/4/1 31/4/1
f 33/4/1 30/4/1 29/4/1
f 33/2/1 29/2/1 32/2/1
f 34/2/1 7/2/1 30/2/1
f 34/4/1 30/4/1 33/4/1
f 35/2/1 31/2/1 2/2/1
f 35/2/1 32/2/1 31/2/1
f 36/3/1 33/3/1 32/3/1
f 36/2/1 32/2/1 35/2/1
f 37/2/1 34/2/1 33/2/1
f 37/3/1 33/3/1 36/3/1
f 38/2/1 7/2/1 34/2/1
f 38/2/1 34/2/1 37/2/1
f 39/1/1 37/1/1 36/1/1
f 39/1/1 36/1/1 35/1/1
f 39/1/1 38/1/1 37/1/1
f 40/1/1 38/1/1 39/1/1
f 41/1/1 2/1/1 1/1/1
f 41/2/1 35/2/1 2/2/1
f 42/1/1 39/1/1 35/1/1
f 42/2/1 35/2/1 41/2/1
f 43/1/1 38/1/1 40/1/1
f 43/2/1 7/2/1 38/2/1
f 44/1/1 8/1/1 7/1/1
f 44/2/1 7/2/1 43/2/1
f 45/1/1 41/1/1 1/1/1
f 46/3/1 42/3/1 41/3/1
f 46/1/1 41/1/1 45/1/1
f 47/1/1 39/1/1 42/1/1
f 47/3/1 42/3/1 46/3/1
f 48/1/1 39/1/1 47/1/1
f 49/1/1 43/1/1 40/1/1
f 50/3/1 44/3/1 43/3/1
f 50/1/1 43/1/1 49/1/1
f 51/1/1 8/1/1 44/1/1
f 51/3/1 44/3/1 50/3/1
f 52/1/1 8/1/1 51/1/1
f 53/1/1 47/1/1 46/1/1
f 54/1/1 47/1/1 53/1/1
f 55/1/1 51/1/1 50/1/1
f 56/1/1 51/1/1 55/1/1
f 59/1/2 60/1/2 65/1/2
f 61/1/2 62/1/2 66/1/2
f 58/2/2 59/2/2 67/2/2
f 65/1/2 66/1/2 67/1/2
f 59/1/2 65/1/2 67/1/2
f 67/1/2 66/1/2 68/1/2
f 66/1/2 62/1/2 69/1/2
f 68/1/2 66/1/2 69/1/2
f 62/2/2 63/2/2 70/2/2
f 69/1/2 62/1/2 70/1/2
f 67/4/2 68/4/2 71/4/2
f 58/2/2 67/2/2 71/2/2
f 68/2/2 69/2/2 72/2/2
f 71/4/2 68/4/2 72/4/2
f 69/4/2 70/4/2 73/4/2
f 72/2/2 69/2/2 73/2/2
f 70/2/2 63/2/2 74/2/2
f 73/4/2 70/4/2 74/4/2
f 58/2/2 71/2/2 75/2/2
f 71/2/2 72/2/2 75/2/2
f 72/3/2 73/3/2 76/3/2
f 75/2/2 72/2/2 76/2/2
f 73/2/2 74/2/2 77/2/2
f 76/3/2 73/3/2 77/3/2
f 74/2/2 63/2/2 78/2/2
f 77/2/2 74/2/2 78/2/2
f 76/1/2 77/1/2 79/1/2
f 75/1/2 76/1/2 79/1/2
f 77/1/2 78/1/2 79/1/2
f 79/1/2 78/1/2 80/1/2
f 75/1/2 79/1/2 81/1/2
f 80/1/2 78/1/2 82/1/2
f 58/2/2 75/2/2 83/2/2
f 81/1/2 82/1/2 83/1/2
f 75/1/2 81/1/2 83/1/2
f 83/1/2 82/1/2 84/1/2
f 82/1/2 78/1/2 85/1/2
f 84/1/2 82/1/2 85/1/2
f 78/2/2 63/2/2 86/2/2
f 85/1/2 78/1/2 86/1/2
f 83/4/2 84/4/2 87/4/2
f 58/2/2 83/2/2 87/2/2
f 84/2/2 85/2/2 88/2/2
f 87/4/2 84/4/2 88/4/2
f 85/4/2 86/4/2 89/4/2
f 88/2/2 85/2/2 89/2/2
f 86/2/2 63/2/2 90/2/2
f 89/4/2 86/4/2 90/4/2
f 58/2/2 87/2/2 91/2/2
f 87/2/2 88/2/2 91/2/2
f 88/3/2 89/3/2 92/3/2
f 91/2/2 88/2/2 92/2/2
f 89/2/2 90/2/2 93/2/2
f 92/3/2 89/3/2 93/3/2
f 90/2/2 63/2/2 94/2/2
f 93/2/2 90/2/2 94/2/2
f 92/1/2 93/1/2 95/1/2
f 91/1/2 92/1/2 95/1/2
f 93/1/2 94/1/2 95/1/2
f 95/1/2 94/1/2 96/1/2
f 57/1/2 58/1/2 97/1/2
f 58/2/2 91/2/2 97/2/2
f 91/1/2 95/1/2 98/1/2
f 97/2/2 91/2/2 98/2/2
f 96/1/2 94/1/2 99/1/2
f 94/2/2 63/2/2 99/2/2
f 63/1/2 64/1/2 100/1/2
f 99/2/2 63/2/2 100/2/2
f 57/1/2 97/1/2 101/1/2
f 97/3/2 98/3/2 102/3/2
f 101/1/2 97/1/2 102/1/2
f 98/1/2 95/1/2 103/1/2
f 102/3/2 98/3/2 103/3/2
f 103/1/2 95/1/2 104/1/2
f 96/1/2 99/1/2 105/1/2
f 99/3/2 100/3/2 106/3/2
f 105/1/2 99/1/2 106/1/2
f 100/1/2 64/1/2 107/1/2
f 106/3/2 100/3/2 107/3/2
f 107/1/2 64/1/2 108/1/2
f 102/1/2 103/1/2 109/1/2
f 109/1/2 103/1/2 110/1/2
f 106/1/2 107/1/2 111/1/2
f 111/1/2 107/1/2 112/1/2
f 115/1/3 114/1/3 113/1/3
f 116/1/3 114/1/3 115/1/3
f 119/1/3 118/1/3 117/1/3
f 120/1/3 118/1/3 119/1/3
f 127/1/3 122/1/3 121/1/3
f 128/1/3 122/1/3 127/1/3
f 129/1/3 124/1/3 123/1/3
f 130/1/3 124/1/3 129/1/3
f 131/1/3 126/1/3 125/1/3
f 132/1/3 126/1/3 131/1/3
f 135/1/3 134/1/3 133/1/3
f 136/1/3 134/1/3 135/1/3
f 137/1/4 138/1/4 139/1/4
f 139/1/4 138/1/4 140/1/4
f 141/1/4 142/1/4 147/1/4
f 147/1/4 142/1/4 148/1/4
f 143/1/4 144/1/4 149/1/4
f 149/1/4 144/1/4 150/1/4
f 145/1/4 146/1/4 151/1/4
f 151/1/4 146/1/4 152/1/4
f 153/1/4 154/1/4 155/1/4
f 155/1/4 154/1/4 156/1/4
f 157/1/4 158/1/4 159/1/4
f 159/1/4 158/1/4 160/1/4
f 163/1/5 162/1/5 161/1/5
f 164/1/5 162/1/5 163/1/5
f 165/2/5 164/2/5 163/2/5
f 166/2/5 164/2/5 165/2/5
f 167/1/5 166/1/5 165/1/5
f 168/1/5 166/1/5 167/1/5
f 171/1/5 170/1/5 169/1/5
f 172/1/5 170/1/5 171/1/5
f 173/2/5 172/2/5 171/2/5
f 174/2/5 172/2/5 173/2/5
f 175/1/5 174/1/5 173/1/5
f 176/1/5 174/1/5 175/1/5
f 179/1/5 178/1/5 177/1/5
f 180/1/5 178/1/5 179/1/5
f 183/1/5 182/1/5 181/1/5
f 184/1/5 182/1/5 183/1/5
f 185/1/6 186/1/6 187/1/6
f 187/1/6 186/1/6 188/1/6
f 189/1/6 190/1/6 191/1/6
f 191/1/6 190/1/6 192/1/6
f 193/1/6 194/1/6 195/1/6
f 195/1/6 194/1/6 196/1/6
f 197/1/6 198/1/6 199/1/6
f 199/1/6 198/1/6 200/1/6
f 201/1/6 202/1/6 203/1/6
f 203/1/6 202/1/6 204/1/6
f 205/1/6 206/1/6 207/1/6
f 207/1/6 206/1/6 208/1/6
f 209/1/6 210/1/6 211/1/6
f 211/1/6 210/1/6 212/1/6
f 213/1/6 214/1/6 215/1/6
f 215/1/6 214/1/6 216/1/6
