# MagicaVoxel @ ephtracy

# material
mtllib tile-1359.mtl
usemtl palette

# normals
vn -1 0 0
vn 1 0 0
vn 0 0 1
vn 0 0 -1
vn 0 -1 0
vn 0 1 0

# texcoords
vt 0.0253906 0.5
vt 0.0292969 0.5
vt 0.0332031 0.5
vt 0.0371094 0.5

# verts
v -8 0 8
v -8 0 6
v -8 15 8
v -8 15 6
v -7 15 8
v -7 15 6
v -7 16 8
v -7 16 6
v -6 15 8
v -6 15 6
v -6 16 8
v -6 16 6
v -5 0 8
v -5 0 6
v -5 1 8
v -5 1 6
v -5 5 8
v -5 5 6
v -5 7 8
v -5 7 6
v -5 11 8
v -5 11 6
v -5 15 8
v -5 15 6
v 8 1 8
v 8 1 6
v 8 2 8
v 8 2 6
v 8 3 8
v 8 3 6
v 8 4 8
v 8 4 6
v 8 5 8
v 8 5 6
v 8 7 8
v 8 7 6
v 8 8 8
v 8 8 6
v 8 9 8
v 8 9 6
v 8 10 8
v 8 10 6
v 8 11 8
v 8 11 6
v -8 0 8
v -8 15 8
v -7 0 8
v -7 14 8
v -7 15 8
v -7 16 8
v -6 0 8
v -6 2 8
v -6 3 8
v -6 4 8
v -6 8 8
v -6 9 8
v -6 10 8
v -6 14 8
v -6 15 8
v -6 16 8
v -5 0 8
v -5 1 8
v -5 2 8
v -5 3 8
v -5 4 8
v -5 5 8
v -5 7 8
v -5 8 8
v -5 9 8
v -5 10 8
v -5 11 8
v -5 15 8
v 8 1 8
v 8 2 8
v 8 3 8
v 8 4 8
v 8 5 8
v 8 7 8
v 8 8 8
v 8 9 8
v 8 10 8
v 8 11 8
v -8 0 6
v -8 15 6
v -7 0 6
v -7 14 6
v -7 15 6
v -7 16 6
v -6 0 6
v -6 2 6
v -6 3 6
v -6 4 6
v -6 8 6
v -6 9 6
v -6 10 6
v -6 14 6
v -6 15 6
v -6 16 6
v -5 0 6
v -5 1 6
v -5 2 6
v -5 3 6
v -5 4 6
v -5 5 6
v -5 7 6
v -5 8 6
v -5 9 6
v -5 10 6
v -5 11 6
v -5 15 6
v 8 1 6
v 8 2 6
v 8 3 6
v 8 4 6
v 8 5 6
v 8 7 6
v 8 8 6
v 8 9 6
v 8 10 6
v 8 11 6
v -8 0 8
v -7 0 8
v -6 0 8
v -5 0 8
v -8 0 6
v -7 0 6
v -6 0 6
v -5 0 6
v -5 1 8
v 8 1 8
v -5 1 6
v 8 1 6
v -5 7 8
v 8 7 8
v -5 7 6
v 8 7 6
v -5 5 8
v 8 5 8
v -5 5 6
v 8 5 6
v -5 11 8
v 8 11 8
v -5 11 6
v 8 11 6
v -8 15 8
v -7 15 8
v -6 15 8
v -5 15 8
v -8 15 6
v -7 15 6
v -6 15 6
v -5 15 6
v -7 16 8
v -6 16 8
v -7 16 6
v -6 16 6

# faces
f 3/1/1 2/1/1 1/1/1
f 4/1/1 2/1/1 3/1/1
f 7/1/1 6/1/1 5/1/1
f 8/1/1 6/1/1 7/1/1
f 9/1/2 10/1/2 11/1/2
f 11/1/2 10/1/2 12/1/2
f 13/1/2 14/1/2 15/1/2
f 15/1/2 14/1/2 16/1/2
f 17/1/2 18/1/2 19/1/2
f 19/1/2 18/1/2 20/1/2
f 21/1/2 22/1/2 23/1/2
f 23/1/2 22/1/2 24/1/2
f 25/1/2 26/1/2 27/1/2
f 27/1/2 26/1/2 28/1/2
f 27/2/2 28/2/2 29/2/2
f 29/2/2 28/2/2 30/2/2
f 29/3/2 30/3/2 31/3/2
f 31/3/2 30/3/2 32/3/2
f 31/1/2 32/1/2 33/1/2
f 33/1/2 32/1/2 34/1/2
f 35/1/2 36/1/2 37/1/2
f 37/1/2 36/1/2 38/1/2
f 37/2/2 38/2/2 39/2/2
f 39/2/2 38/2/2 40/2/2
f 39/3/2 40/3/2 41/3/2
f 41/3/2 40/3/2 42/3/2
f 41/1/2 42/1/2 43/1/2
f 43/1/2 42/1/2 44/1/2
f 47/1/3 46/1/3 45/1/3
f 48/1/3 46/1/3 47/1/3
f 49/1/3 46/1/3 48/1/3
f 51/2/3 48/2/3 47/2/3
f 52/2/3 48/2/3 51/2/3
f 53/2/3 48/2/3 52/2/3
f 54/2/3 48/2/3 53/2/3
f 55/2/3 48/2/3 54/2/3
f 56/2/3 48/2/3 55/2/3
f 57/2/3 48/2/3 56/2/3
f 58/3/3 49/3/3 48/3/3
f 58/2/3 48/2/3 57/2/3
f 59/1/3 50/1/3 49/1/3
f 59/3/3 49/3/3 58/3/3
f 60/1/3 50/1/3 59/1/3
f 61/1/3 52/1/3 51/1/3
f 62/1/3 52/1/3 61/1/3
f 63/4/3 53/4/3 52/4/3
f 63/1/3 52/1/3 62/1/3
f 64/2/3 54/2/3 53/2/3
f 64/4/3 53/4/3 63/4/3
f 65/1/3 55/1/3 54/1/3
f 65/2/3 54/2/3 64/2/3
f 66/1/3 55/1/3 65/1/3
f 67/1/3 55/1/3 66/1/3
f 68/4/3 56/4/3 55/4/3
f 68/1/3 55/1/3 67/1/3
f 69/2/3 57/2/3 56/2/3
f 69/4/3 56/4/3 68/4/3
f 70/1/3 58/1/3 57/1/3
f 70/2/3 57/2/3 69/2/3
f 70/1/3 59/1/3 58/1/3
f 71/1/3 59/1/3 70/1/3
f 72/1/3 59/1/3 71/1/3
f 73/1/3 63/1/3 62/1/3
f 74/2/3 64/2/3 63/2/3
f 74/1/3 63/1/3 73/1/3
f 75/3/3 65/3/3 64/3/3
f 75/2/3 64/2/3 74/2/3
f 76/1/3 66/1/3 65/1/3
f 76/3/3 65/3/3 75/3/3
f 77/1/3 66/1/3 76/1/3
f 78/1/3 68/1/3 67/1/3
f 79/2/3 69/2/3 68/2/3
f 79/1/3 68/1/3 78/1/3
f 80/3/3 70/3/3 69/3/3
f 80/2/3 69/2/3 79/2/3
f 81/1/3 71/1/3 70/1/3
f 81/3/3 70/3/3 80/3/3
f 82/1/3 71/1/3 81/1/3
f 83/1/4 84/1/4 85/1/4
f 85/1/4 84/1/4 86/1/4
f 86/1/4 84/1/4 87/1/4
f 85/2/4 86/2/4 89/2/4
f 89/2/4 86/2/4 90/2/4
f 90/2/4 86/2/4 91/2/4
f 91/2/4 86/2/4 92/2/4
f 92/2/4 86/2/4 93/2/4
f 93/2/4 86/2/4 94/2/4
f 94/2/4 86/2/4 95/2/4
f 86/3/4 87/3/4 96/3/4
f 95/2/4 86/2/4 96/2/4
f 87/1/4 88/1/4 97/1/4
f 96/3/4 87/3/4 97/3/4
f 97/1/4 88/1/4 98/1/4
f 89/1/4 90/1/4 99/1/4
f 99/1/4 90/1/4 100/1/4
f 90/4/4 91/4/4 101/4/4
f 100/1/4 90/1/4 101/1/4
f 91/2/4 92/2/4 102/2/4
f 101/4/4 91/4/4 102/4/4
f 92/1/4 93/1/4 103/1/4
f 102/2/4 92/2/4 103/2/4
f 103/1/4 93/1/4 104/1/4
f 104/1/4 93/1/4 105/1/4
f 93/4/4 94/4/4 106/4/4
f 105/1/4 93/1/4 106/1/4
f 94/2/4 95/2/4 107/2/4
f 106/4/4 94/4/4 107/4/4
f 95/1/4 96/1/4 108/1/4
f 107/2/4 95/2/4 108/2/4
f 96/1/4 97/1/4 108/1/4
f 108/1/4 97/1/4 109/1/4
f 109/1/4 97/1/4 110/1/4
f 100/1/4 101/1/4 111/1/4
f 101/2/4 102/2/4 112/2/4
f 111/1/4 101/1/4 112/1/4
f 102/3/4 103/3/4 113/3/4
f 112/2/4 102/2/4 113/2/4
f 103/1/4 104/1/4 114/1/4
f 113/3/4 103/3/4 114/3/4
f 114/1/4 104/1/4 115/1/4
f 105/1/4 106/1/4 116/1/4
f 106/2/4 107/2/4 117/2/4
f 116/1/4 106/1/4 117/1/4
f 107/3/4 108/3/4 118/3/4
f 117/2/4 107/2/4 118/2/4
f 108/1/4 109/1/4 119/1/4
f 118/3/4 108/3/4 119/3/4
f 119/1/4 109/1/4 120/1/4
f 125/1/5 122/1/5 121/1/5
f 126/2/5 123/2/5 122/2/5
f 126/1/5 122/1/5 125/1/5
f 127/1/5 124/1/5 123/1/5
f 127/2/5 123/2/5 126/2/5
f 128/1/5 124/1/5 127/1/5
f 131/1/5 130/1/5 129/1/5
f 132/1/5 130/1/5 131/1/5
f 135/1/5 134/1/5 133/1/5
f 136/1/5 134/1/5 135/1/5
f 137/1/6 138/1/6 139/1/6
f 139/1/6 138/1/6 140/1/6
f 141/1/6 142/1/6 143/1/6
f 143/1/6 142/1/6 144/1/6
f 145/1/6 146/1/6 149/1/6
f 149/1/6 146/1/6 150/1/6
f 147/1/6 148/1/6 151/1/6
f 151/1/6 148/1/6 152/1/6
f 153/1/6 154/1/6 155/1/6
f 155/1/6 154/1/6 156/1/6
