# MagicaVoxel @ ephtracy

# material
mtllib tile-793.mtl
usemtl palette

# normals
vn -1 0 0
vn 1 0 0
vn 0 0 1
vn 0 0 -1
vn 0 -1 0
vn 0 1 0

# texcoords
vt 0.0253906 0.5
vt 0.0292969 0.5
vt 0.0644531 0.5
vt 0.0996094 0.5
vt 0.103516 0.5
vt 0.107422 0.5
vt 0.111328 0.5
vt 0.115234 0.5

# verts
v -8 10 8
v -8 10 7
v -8 11 8
v -8 11 7
v -8 12 8
v -8 12 7
v -8 13 8
v -8 13 7
v -6 3 8
v -6 3 7
v -6 5 8
v -6 5 7
v -6 6 8
v -6 6 7
v -6 9 8
v -6 9 7
v -5 5 8
v -5 5 7
v -5 6 8
v -5 6 7
v -5 9 8
v -5 9 7
v -5 10 8
v -5 10 7
v -4 3 8
v -4 3 7
v -4 4 8
v -4 4 7
v -2 4 8
v -2 4 7
v -2 6 8
v -2 6 7
v -2 7 8
v -2 7 7
v -2 10 8
v -2 10 7
v -1 6 8
v -1 6 7
v -1 7 8
v -1 7 7
v 0 4 8
v 0 4 7
v 0 5 8
v 0 5 7
v 0 13 8
v 0 13 7
v 0 14 8
v 0 14 7
v 4 14 8
v 4 14 7
v 4 15 8
v 4 15 7
v 5 0 8
v 5 0 7
v 5 11 8
v 5 11 7
v 5 12 8
v 5 12 7
v -5 3 8
v -5 3 7
v -5 4 8
v -5 4 7
v -4 5 8
v -4 5 7
v -4 6 8
v -4 6 7
v -4 9 8
v -4 9 7
v -4 10 8
v -4 10 7
v -3 3 8
v -3 3 7
v -3 5 8
v -3 5 7
v -3 6 8
v -3 6 7
v -3 9 8
v -3 9 7
v -1 4 8
v -1 4 7
v -1 5 8
v -1 5 7
v 0 6 8
v 0 6 7
v 0 7 8
v 0 7 7
v 0 10 8
v 0 10 7
v 0 11 8
v 0 11 7
v 1 4 8
v 1 4 7
v 1 6 8
v 1 6 7
v 1 7 8
v 1 7 7
v 1 10 8
v 1 10 7
v 4 11 8
v 4 11 7
v 4 12 8
v 4 12 7
v 8 0 8
v 8 0 7
v 8 11 8
v 8 11 7
v 8 14 8
v 8 14 7
v 8 15 8
v 8 15 7
v -8 10 8
v -8 11 8
v -8 12 8
v -8 13 8
v -6 3 8
v -6 5 8
v -6 6 8
v -6 9 8
v -5 3 8
v -5 4 8
v -5 5 8
v -5 6 8
v -5 8 8
v -5 9 8
v -5 10 8
v -4 3 8
v -4 4 8
v -4 5 8
v -4 6 8
v -4 8 8
v -4 9 8
v -4 10 8
v -3 3 8
v -3 5 8
v -3 6 8
v -3 9 8
v -2 4 8
v -2 6 8
v -2 7 8
v -2 10 8
v -1 4 8
v -1 5 8
v -1 6 8
v -1 7 8
v -1 9 8
v -1 10 8
v -1 11 8
v 0 4 8
v 0 5 8
v 0 6 8
v 0 7 8
v 0 9 8
v 0 10 8
v 0 11 8
v 0 12 8
v 0 13 8
v 0 14 8
v 1 4 8
v 1 6 8
v 1 7 8
v 1 10 8
v 4 11 8
v 4 12 8
v 4 13 8
v 4 14 8
v 4 15 8
v 5 0 8
v 5 11 8
v 5 12 8
v 5 13 8
v 5 14 8
v 5 15 8
v 6 0 8
v 6 11 8
v 6 12 8
v 6 13 8
v 6 14 8
v 7 0 8
v 7 11 8
v 7 12 8
v 7 13 8
v 7 14 8
v 8 0 8
v 8 11 8
v 8 14 8
v 8 15 8
v -8 10 7
v -8 11 7
v -8 12 7
v -8 13 7
v -6 3 7
v -6 5 7
v -6 6 7
v -6 9 7
v -5 3 7
v -5 4 7
v -5 5 7
v -5 6 7
v -5 8 7
v -5 9 7
v -5 10 7
v -4 3 7
v -4 4 7
v -4 5 7
v -4 6 7
v -4 8 7
v -4 9 7
v -4 10 7
v -3 3 7
v -3 5 7
v -3 6 7
v -3 9 7
v -2 4 7
v -2 6 7
v -2 7 7
v -2 10 7
v -1 4 7
v -1 5 7
v -1 6 7
v -1 7 7
v -1 9 7
v -1 10 7
v -1 11 7
v 0 4 7
v 0 5 7
v 0 6 7
v 0 7 7
v 0 9 7
v 0 10 7
v 0 11 7
v 0 12 7
v 0 13 7
v 0 14 7
v 1 4 7
v 1 6 7
v 1 7 7
v 1 10 7
v 4 11 7
v 4 12 7
v 4 13 7
v 4 14 7
v 4 15 7
v 5 0 7
v 5 11 7
v 5 12 7
v 5 13 7
v 5 14 7
v 5 15 7
v 6 0 7
v 6 11 7
v 6 12 7
v 6 13 7
v 6 14 7
v 7 0 7
v 7 11 7
v 7 12 7
v 7 13 7
v 7 14 7
v 8 0 7
v 8 11 7
v 8 14 7
v 8 15 7
v 5 0 8
v 6 0 8
v 7 0 8
v 8 0 8
v 5 0 7
v 6 0 7
v 7 0 7
v 8 0 7
v -6 3 8
v -5 3 8
v -4 3 8
v -3 3 8
v -6 3 7
v -5 3 7
v -4 3 7
v -3 3 7
v -5 4 8
v -4 4 8
v -2 4 8
v -1 4 8
v 0 4 8
v 1 4 8
v -5 4 7
v -4 4 7
v -2 4 7
v -1 4 7
v 0 4 7
v 1 4 7
v -1 5 8
v 0 5 8
v -1 5 7
v 0 5 7
v -6 6 8
v -5 6 8
v -4 6 8
v -3 6 8
v -6 6 7
v -5 6 7
v -4 6 7
v -3 6 7
v -2 7 8
v -1 7 8
v 0 7 8
v 1 7 8
v -2 7 7
v -1 7 7
v 0 7 7
v 1 7 7
v -8 10 8
v -5 10 8
v -4 10 8
v -2 10 8
v -8 10 7
v -5 10 7
v -4 10 7
v -2 10 7
v 0 11 8
v 4 11 8
v 0 11 7
v 4 11 7
v 4 12 8
v 5 12 8
v 4 12 7
v 5 12 7
v -6 5 8
v -5 5 8
v -4 5 8
v -3 5 8
v -6 5 7
v -5 5 7
v -4 5 7
v -3 5 7
v -2 6 8
v -1 6 8
v 0 6 8
v 1 6 8
v -2 6 7
v -1 6 7
v 0 6 7
v 1 6 7
v -6 9 8
v -5 9 8
v -4 9 8
v -3 9 8
v -6 9 7
v -5 9 7
v -4 9 7
v -3 9 7
v 0 10 8
v 1 10 8
v 0 10 7
v 1 10 7
v -8 13 8
v 0 13 8
v -8 13 7
v 0 13 7
v 0 14 8
v 4 14 8
v 0 14 7
v 4 14 7
v 4 15 8
v 5 15 8
v 8 15 8
v 4 15 7
v 5 15 7
v 8 15 7

# faces
f 3/4/1 2/4/1 1/4/1
f 4/4/1 2/4/1 3/4/1
f 5/3/1 4/3/1 3/3/1
f 6/3/1 4/3/1 5/3/1
f 7/4/1 6/4/1 5/4/1
f 8/4/1 6/4/1 7/4/1
f 11/6/1 10/6/1 9/6/1
f 12/6/1 10/6/1 11/6/1
f 15/6/1 14/6/1 13/6/1
f 16/6/1 14/6/1 15/6/1
f 19/6/1 18/6/1 17/6/1
f 20/6/1 18/6/1 19/6/1
f 23/6/1 22/6/1 21/6/1
f 24/6/1 22/6/1 23/6/1
f 27/6/1 26/6/1 25/6/1
f 28/6/1 26/6/1 27/6/1
f 31/6/1 30/6/1 29/6/1
f 32/6/1 30/6/1 31/6/1
f 35/6/1 34/6/1 33/6/1
f 36/6/1 34/6/1 35/6/1
f 39/6/1 38/6/1 37/6/1
f 40/6/1 38/6/1 39/6/1
f 43/6/1 42/6/1 41/6/1
f 44/6/1 42/6/1 43/6/1
f 47/4/1 46/4/1 45/4/1
f 48/4/1 46/4/1 47/4/1
f 51/4/1 50/4/1 49/4/1
f 52/4/1 50/4/1 51/4/1
f 55/1/1 54/1/1 53/1/1
f 56/1/1 54/1/1 55/1/1
f 57/4/1 56/4/1 55/4/1
f 58/4/1 56/4/1 57/4/1
f 59/6/2 60/6/2 61/6/2
f 61/6/2 60/6/2 62/6/2
f 63/6/2 64/6/2 65/6/2
f 65/6/2 64/6/2 66/6/2
f 67/6/2 68/6/2 69/6/2
f 69/6/2 68/6/2 70/6/2
f 71/6/2 72/6/2 73/6/2
f 73/6/2 72/6/2 74/6/2
f 75/6/2 76/6/2 77/6/2
f 77/6/2 76/6/2 78/6/2
f 79/6/2 80/6/2 81/6/2
f 81/6/2 80/6/2 82/6/2
f 83/6/2 84/6/2 85/6/2
f 85/6/2 84/6/2 86/6/2
f 87/6/2 88/6/2 89/6/2
f 89/6/2 88/6/2 90/6/2
f 91/6/2 92/6/2 93/6/2
f 93/6/2 92/6/2 94/6/2
f 95/6/2 96/6/2 97/6/2
f 97/6/2 96/6/2 98/6/2
f 99/4/2 100/4/2 101/4/2
f 101/4/2 100/4/2 102/4/2
f 103/1/2 104/1/2 105/1/2
f 105/1/2 104/1/2 106/1/2
f 105/4/2 106/4/2 107/4/2
f 107/4/2 106/4/2 108/4/2
f 107/1/2 108/1/2 109/1/2
f 109/1/2 108/1/2 110/1/2
f 119/6/3 116/6/3 115/6/3
f 120/6/3 116/6/3 119/6/3
f 121/6/3 116/6/3 120/6/3
f 122/6/3 118/6/3 117/6/3
f 123/6/3 118/6/3 122/6/3
f 124/6/3 118/6/3 123/6/3
f 125/4/3 112/4/3 111/4/3
f 127/6/3 121/6/3 120/6/3
f 127/6/3 122/6/3 121/6/3
f 128/6/3 122/6/3 127/6/3
f 129/7/3 123/7/3 122/7/3
f 129/6/3 122/6/3 128/6/3
f 130/8/3 124/8/3 123/8/3
f 130/7/3 123/7/3 129/7/3
f 131/6/3 125/6/3 124/6/3
f 131/8/3 124/8/3 130/8/3
f 132/4/3 112/4/3 125/4/3
f 132/6/3 125/6/3 131/6/3
f 133/6/3 128/6/3 127/6/3
f 133/6/3 127/6/3 126/6/3
f 134/6/3 128/6/3 133/6/3
f 135/6/3 131/6/3 130/6/3
f 135/6/3 130/6/3 129/6/3
f 136/6/3 131/6/3 135/6/3
f 140/4/3 112/4/3 132/4/3
f 141/6/3 138/6/3 137/6/3
f 142/6/3 138/6/3 141/6/3
f 143/6/3 138/6/3 142/6/3
f 144/6/3 140/6/3 139/6/3
f 145/6/3 140/6/3 144/6/3
f 146/4/3 112/4/3 140/4/3
f 146/6/3 140/6/3 145/6/3
f 147/3/3 113/3/3 112/3/3
f 147/4/3 112/4/3 146/4/3
f 149/6/3 143/6/3 142/6/3
f 149/6/3 144/6/3 143/6/3
f 150/6/3 144/6/3 149/6/3
f 151/7/3 145/7/3 144/7/3
f 151/6/3 144/6/3 150/6/3
f 152/8/3 146/8/3 145/8/3
f 152/7/3 145/7/3 151/7/3
f 153/6/3 147/6/3 146/6/3
f 153/8/3 146/8/3 152/8/3
f 154/3/3 113/3/3 147/3/3
f 154/6/3 147/6/3 153/6/3
f 155/4/3 114/4/3 113/4/3
f 155/3/3 113/3/3 154/3/3
f 156/4/3 114/4/3 155/4/3
f 158/6/3 150/6/3 149/6/3
f 158/6/3 149/6/3 148/6/3
f 159/6/3 150/6/3 158/6/3
f 160/6/3 152/6/3 151/6/3
f 160/6/3 153/6/3 152/6/3
f 161/6/3 153/6/3 160/6/3
f 162/4/3 155/4/3 154/4/3
f 163/3/3 156/3/3 155/3/3
f 163/4/3 155/4/3 162/4/3
f 164/4/3 157/4/3 156/4/3
f 164/3/3 156/3/3 163/3/3
f 165/4/3 157/4/3 164/4/3
f 169/4/3 164/4/3 163/4/3
f 170/3/3 165/3/3 164/3/3
f 170/4/3 164/4/3 169/4/3
f 171/4/3 166/4/3 165/4/3
f 171/3/3 165/3/3 170/3/3
f 172/4/3 166/4/3 171/4/3
f 173/1/3 168/1/3 167/1/3
f 174/4/3 170/4/3 169/4/3
f 174/1/3 168/1/3 173/1/3
f 174/4/3 169/4/3 168/4/3
f 174/4/3 171/4/3 170/4/3
f 175/4/3 171/4/3 174/4/3
f 176/4/3 171/4/3 175/4/3
f 177/1/3 172/1/3 171/1/3
f 177/4/3 171/4/3 176/4/3
f 178/2/3 174/2/3 173/2/3
f 179/5/3 175/5/3 174/5/3
f 179/2/3 174/2/3 178/2/3
f 180/3/3 176/3/3 175/3/3
f 180/5/3 175/5/3 179/5/3
f 181/5/3 177/5/3 176/5/3
f 181/3/3 176/3/3 180/3/3
f 182/1/3 172/1/3 177/1/3
f 182/5/3 177/5/3 181/5/3
f 183/1/3 179/1/3 178/1/3
f 184/4/3 181/4/3 180/4/3
f 184/1/3 179/1/3 183/1/3
f 184/4/3 180/4/3 179/4/3
f 184/4/3 182/4/3 181/4/3
f 185/1/3 172/1/3 182/1/3
f 185/4/3 182/4/3 184/4/3
f 186/1/3 172/1/3 185/1/3
f 191/6/4 192/6/4 195/6/4
f 195/6/4 192/6/4 196/6/4
f 196/6/4 192/6/4 197/6/4
f 193/6/4 194/6/4 198/6/4
f 198/6/4 194/6/4 199/6/4
f 199/6/4 194/6/4 200/6/4
f 187/4/4 188/4/4 201/4/4
f 196/6/4 197/6/4 203/6/4
f 197/6/4 198/6/4 203/6/4
f 203/6/4 198/6/4 204/6/4
f 198/7/4 199/7/4 205/7/4
f 204/6/4 198/6/4 205/6/4
f 199/8/4 200/8/4 206/8/4
f 205/7/4 199/7/4 206/7/4
f 200/6/4 201/6/4 207/6/4
f 206/8/4 200/8/4 207/8/4
f 201/4/4 188/4/4 208/4/4
f 207/6/4 201/6/4 208/6/4
f 203/6/4 204/6/4 209/6/4
f 202/6/4 203/6/4 209/6/4
f 209/6/4 204/6/4 210/6/4
f 206/6/4 207/6/4 211/6/4
f 205/6/4 206/6/4 211/6/4
f 211/6/4 207/6/4 212/6/4
f 208/4/4 188/4/4 216/4/4
f 213/6/4 214/6/4 217/6/4
f 217/6/4 214/6/4 218/6/4
f 218/6/4 214/6/4 219/6/4
f 215/6/4 216/6/4 220/6/4
f 220/6/4 216/6/4 221/6/4
f 216/4/4 188/4/4 222/4/4
f 221/6/4 216/6/4 222/6/4
f 188/3/4 189/3/4 223/3/4
f 222/4/4 188/4/4 223/4/4
f 218/6/4 219/6/4 225/6/4
f 219/6/4 220/6/4 225/6/4
f 225/6/4 220/6/4 226/6/4
f 220/7/4 221/7/4 227/7/4
f 226/6/4 220/6/4 227/6/4
f 221/8/4 222/8/4 228/8/4
f 227/7/4 221/7/4 228/7/4
f 222/6/4 223/6/4 229/6/4
f 228/8/4 222/8/4 229/8/4
f 223/3/4 189/3/4 230/3/4
f 229/6/4 223/6/4 230/6/4
f 189/4/4 190/4/4 231/4/4
f 230/3/4 189/3/4 231/3/4
f 231/4/4 190/4/4 232/4/4
f 225/6/4 226/6/4 234/6/4
f 224/6/4 225/6/4 234/6/4
f 234/6/4 226/6/4 235/6/4
f 227/6/4 228/6/4 236/6/4
f 228/6/4 229/6/4 236/6/4
f 236/6/4 229/6/4 237/6/4
f 230/4/4 231/4/4 238/4/4
f 231/3/4 232/3/4 239/3/4
f 238/4/4 231/4/4 239/4/4
f 232/4/4 233/4/4 240/4/4
f 239/3/4 232/3/4 240/3/4
f 240/4/4 233/4/4 241/4/4
f 239/4/4 240/4/4 245/4/4
f 240/3/4 241/3/4 246/3/4
f 245/4/4 240/4/4 246/4/4
f 241/4/4 242/4/4 247/4/4
f 246/3/4 241/3/4 247/3/4
f 247/4/4 242/4/4 248/4/4
f 243/1/4 244/1/4 249/1/4
f 245/4/4 246/4/4 250/4/4
f 249/1/4 244/1/4 250/1/4
f 244/4/4 245/4/4 250/4/4
f 246/4/4 247/4/4 250/4/4
f 250/4/4 247/4/4 251/4/4
f 251/4/4 247/4/4 252/4/4
f 247/1/4 248/1/4 253/1/4
f 252/4/4 247/4/4 253/4/4
f 249/2/4 250/2/4 254/2/4
f 250/5/4 251/5/4 255/5/4
f 254/2/4 250/2/4 255/2/4
f 251/3/4 252/3/4 256/3/4
f 255/5/4 251/5/4 256/5/4
f 252/5/4 253/5/4 257/5/4
f 256/3/4 252/3/4 257/3/4
f 253/1/4 248/1/4 258/1/4
f 257/5/4 253/5/4 258/5/4
f 254/1/4 255/1/4 259/1/4
f 256/4/4 257/4/4 260/4/4
f 259/1/4 255/1/4 260/1/4
f 255/4/4 256/4/4 260/4/4
f 257/4/4 258/4/4 260/4/4
f 258/1/4 248/1/4 261/1/4
f 260/4/4 258/4/4 261/4/4
f 261/1/4 248/1/4 262/1/4
f 267/1/5 264/1/5 263/1/5
f 268/2/5 265/2/5 264/2/5
f 268/1/5 264/1/5 267/1/5
f 269/1/5 266/1/5 265/1/5
f 269/2/5 265/2/5 268/2/5
f 270/1/5 266/1/5 269/1/5
f 275/6/5 272/6/5 271/6/5
f 276/6/5 272/6/5 275/6/5
f 277/6/5 274/6/5 273/6/5
f 278/6/5 274/6/5 277/6/5
f 285/6/5 280/6/5 279/6/5
f 286/6/5 280/6/5 285/6/5
f 287/6/5 282/6/5 281/6/5
f 288/6/5 282/6/5 287/6/5
f 289/6/5 284/6/5 283/6/5
f 290/6/5 284/6/5 289/6/5
f 293/6/5 292/6/5 291/6/5
f 294/6/5 292/6/5 293/6/5
f 299/6/5 296/6/5 295/6/5
f 300/6/5 296/6/5 299/6/5
f 301/6/5 298/6/5 297/6/5
f 302/6/5 298/6/5 301/6/5
f 307/6/5 304/6/5 303/6/5
f 308/6/5 304/6/5 307/6/5
f 309/6/5 306/6/5 305/6/5
f 310/6/5 306/6/5 309/6/5
f 315/4/5 312/4/5 311/4/5
f 316/4/5 312/4/5 315/4/5
f 317/4/5 314/4/5 313/4/5
f 318/4/5 314/4/5 317/4/5
f 321/4/5 320/4/5 319/4/5
f 322/4/5 320/4/5 321/4/5
f 325/4/5 324/4/5 323/4/5
f 326/4/5 324/4/5 325/4/5
f 327/6/6 328/6/6 331/6/6
f 331/6/6 328/6/6 332/6/6
f 329/6/6 330/6/6 333/6/6
f 333/6/6 330/6/6 334/6/6
f 335/6/6 336/6/6 339/6/6
f 339/6/6 336/6/6 340/6/6
f 337/6/6 338/6/6 341/6/6
f 341/6/6 338/6/6 342/6/6
f 343/6/6 344/6/6 347/6/6
f 347/6/6 344/6/6 348/6/6
f 345/6/6 346/6/6 349/6/6
f 349/6/6 346/6/6 350/6/6
f 351/6/6 352/6/6 353/6/6
f 353/6/6 352/6/6 354/6/6
f 355/4/6 356/4/6 357/4/6
f 357/4/6 356/4/6 358/4/6
f 359/4/6 360/4/6 361/4/6
f 361/4/6 360/4/6 362/4/6
f 363/4/6 364/4/6 366/4/6
f 364/1/6 365/1/6 367/1/6
f 366/4/6 364/4/6 367/4/6
f 367/1/6 365/1/6 368/1/6
