# MagicaVoxel @ ephtracy

# material
mtllib tile-1363.mtl
usemtl palette

# normals
vn -1 0 0
vn 1 0 0
vn 0 0 1
vn 0 0 -1
vn 0 -1 0
vn 0 1 0

# texcoords
vt 0.0253906 0.5
vt 0.0292969 0.5
vt 0.0332031 0.5

# verts
v -8 1 8
v -8 1 6
v -8 2 8
v -8 2 6
v -8 3 8
v -8 3 6
v -8 4 8
v -8 4 6
v -8 5 8
v -8 5 6
v -8 7 8
v -8 7 6
v -8 8 8
v -8 8 6
v -8 9 8
v -8 9 6
v -8 10 8
v -8 10 6
v -8 11 8
v -8 11 6
v 8 1 8
v 8 1 6
v 8 2 8
v 8 2 6
v 8 3 8
v 8 3 6
v 8 4 8
v 8 4 6
v 8 5 8
v 8 5 6
v 8 7 8
v 8 7 6
v 8 8 8
v 8 8 6
v 8 9 8
v 8 9 6
v 8 10 8
v 8 10 6
v 8 11 8
v 8 11 6
v -8 1 8
v -8 2 8
v -8 3 8
v -8 4 8
v -8 5 8
v -8 7 8
v -8 8 8
v -8 9 8
v -8 10 8
v -8 11 8
v 8 1 8
v 8 2 8
v 8 3 8
v 8 4 8
v 8 5 8
v 8 7 8
v 8 8 8
v 8 9 8
v 8 10 8
v 8 11 8
v -8 1 6
v -8 2 6
v -8 3 6
v -8 4 6
v -8 5 6
v -8 7 6
v -8 8 6
v -8 9 6
v -8 10 6
v -8 11 6
v 8 1 6
v 8 2 6
v 8 3 6
v 8 4 6
v 8 5 6
v 8 7 6
v 8 8 6
v 8 9 6
v 8 10 6
v 8 11 6
v -8 1 8
v 8 1 8
v -8 1 6
v 8 1 6
v -8 7 8
v 8 7 8
v -8 7 6
v 8 7 6
v -8 5 8
v 8 5 8
v -8 5 6
v 8 5 6
v -8 11 8
v 8 11 8
v -8 11 6
v 8 11 6

# faces
f 3/1/1 2/1/1 1/1/1
f 4/1/1 2/1/1 3/1/1
f 5/2/1 4/2/1 3/2/1
f 6/2/1 4/2/1 5/2/1
f 7/3/1 6/3/1 5/3/1
f 8/3/1 6/3/1 7/3/1
f 9/1/1 8/1/1 7/1/1
f 10/1/1 8/1/1 9/1/1
f 13/1/1 12/1/1 11/1/1
f 14/1/1 12/1/1 13/1/1
f 15/2/1 14/2/1 13/2/1
f 16/2/1 14/2/1 15/2/1
f 17/3/1 16/3/1 15/3/1
f 18/3/1 16/3/1 17/3/1
f 19/1/1 18/1/1 17/1/1
f 20/1/1 18/1/1 19/1/1
f 21/1/2 22/1/2 23/1/2
f 23/1/2 22/1/2 24/1/2
f 23/2/2 24/2/2 25/2/2
f 25/2/2 24/2/2 26/2/2
f 25/3/2 26/3/2 27/3/2
f 27/3/2 26/3/2 28/3/2
f 27/1/2 28/1/2 29/1/2
f 29/1/2 28/1/2 30/1/2
f 31/1/2 32/1/2 33/1/2
f 33/1/2 32/1/2 34/1/2
f 33/2/2 34/2/2 35/2/2
f 35/2/2 34/2/2 36/2/2
f 35/3/2 36/3/2 37/3/2
f 37/3/2 36/3/2 38/3/2
f 37/1/2 38/1/2 39/1/2
f 39/1/2 38/1/2 40/1/2
f 51/1/3 42/1/3 41/1/3
f 52/2/3 43/2/3 42/2/3
f 52/1/3 42/1/3 51/1/3
f 53/3/3 44/3/3 43/3/3
f 53/2/3 43/2/3 52/2/3
f 54/1/3 45/1/3 44/1/3
f 54/3/3 44/3/3 53/3/3
f 55/1/3 45/1/3 54/1/3
f 56/1/3 47/1/3 46/1/3
f 57/2/3 48/2/3 47/2/3
f 57/1/3 47/1/3 56/1/3
f 58/3/3 49/3/3 48/3/3
f 58/2/3 48/2/3 57/2/3
f 59/1/3 50/1/3 49/1/3
f 59/3/3 49/3/3 58/3/3
f 60/1/3 50/1/3 59/1/3
f 61/1/4 62/1/4 71/1/4
f 62/2/4 63/2/4 72/2/4
f 71/1/4 62/1/4 72/1/4
f 63/3/4 64/3/4 73/3/4
f 72/2/4 63/2/4 73/2/4
f 64/1/4 65/1/4 74/1/4
f 73/3/4 64/3/4 74/3/4
f 74/1/4 65/1/4 75/1/4
f 66/1/4 67/1/4 76/1/4
f 67/2/4 68/2/4 77/2/4
f 76/1/4 67/1/4 77/1/4
f 68/3/4 69/3/4 78/3/4
f 77/2/4 68/2/4 78/2/4
f 69/1/4 70/1/4 79/1/4
f 78/3/4 69/3/4 79/3/4
f 79/1/4 70/1/4 80/1/4
f 83/1/5 82/1/5 81/1/5
f 84/1/5 82/1/5 83/1/5
f 87/1/5 86/1/5 85/1/5
f 88/1/5 86/1/5 87/1/5
f 89/1/6 90/1/6 91/1/6
f 91/1/6 90/1/6 92/1/6
f 93/1/6 94/1/6 95/1/6
f 95/1/6 94/1/6 96/1/6
